<svg width="323" height="323" viewBox="0 0 323 323" fill="none" xmlns="http://www.w3.org/2000/svg">
<g opacity="0.2" style="mix-blend-mode:multiply">
<path d="M294.203 20.7151H28.7417C24.3131 20.7151 20.723 24.3052 20.723 28.7338V294.195C20.723 298.624 24.3131 302.214 28.7417 302.214H294.203C298.631 302.214 302.222 298.624 302.222 294.195V28.7338C302.222 24.3052 298.631 20.7151 294.203 20.7151Z" fill="#11D23F"/>
</g>
<g opacity="0.2" style="mix-blend-mode:multiply">
<path d="M109.048 182.66C92.4897 182.66 79.065 196.085 79.065 212.644C79.065 216.459 79.7867 220.101 81.083 223.456C72.8772 218.17 63.1143 215.089 52.6298 215.089C23.5618 215.089 0 238.651 0 267.719C0 296.787 23.5618 320.349 52.6298 320.349C81.6978 320.349 105.26 296.787 105.26 267.719C105.26 257.696 102.453 248.327 97.595 240.355C101.123 241.819 104.992 242.627 109.055 242.627C125.614 242.627 139.039 229.202 139.039 212.644C139.039 196.085 125.614 182.66 109.055 182.66H109.048Z" fill="#11D23F"/>
</g>
<g opacity="0.2" style="mix-blend-mode:multiply">
<path d="M229.202 183.85C279.363 183.85 320.027 143.186 320.027 93.0243C320.027 42.8626 279.363 2.19849 229.202 2.19849C179.04 2.19849 138.376 42.8626 138.376 93.0243C138.376 143.186 179.04 183.85 229.202 183.85Z" fill="#11D23F"/>
</g>
<path d="M265.95 322.929H56.9946C25.5744 322.929 0.00795746 297.362 0.00795746 265.942V56.9867C0.00795746 25.5665 25.5744 0 56.9946 0H265.95C297.37 0 322.937 25.5665 322.937 56.9867V265.942C322.937 297.362 297.37 322.929 265.95 322.929ZM56.9946 20.7151C36.9945 20.7151 20.7231 36.9865 20.7231 56.9867V265.942C20.7231 285.942 36.9945 302.214 56.9946 302.214H265.95C285.95 302.214 302.222 285.942 302.222 265.942V56.9867C302.222 36.9865 285.95 20.7151 265.95 20.7151H56.9946Z" fill="url(#paint0_linear_5000_9775)"/>
<path d="M82.7231 141.793H80.1237L77.5309 90.8735H85.3158L82.7231 141.793Z" fill="url(#paint1_linear_5000_9775)"/>
<mask id="mask0_5000_9775" style="mask-type:luminance" maskUnits="userSpaceOnUse" x="77" y="90" width="9" height="52">
<path d="M82.7231 141.793H80.1237L77.5309 90.8735H85.3158L82.7231 141.793Z" fill="white"/>
</mask>
<g mask="url(#mask0_5000_9775)">
<path d="M71.1226 123.243L92.1117 111.101L91.2096 148.802L68.1891 147.586L71.1226 123.243Z" fill="url(#paint2_linear_5000_9775)"/>
</g>
<path d="M77.4641 89.0624C76.415 87.9932 75.1253 86.316 75.3258 84.4383C75.5998 81.8455 78.6135 81.1573 79.6158 78.2304C80.0836 76.8605 80.2039 74.7556 78.5467 71.6016C79.1948 71.7018 81.7742 72.1896 83.5717 74.5084C86.2113 77.9163 84.6944 82.0995 84.6008 82.3534C84.8481 82.2932 85.4962 82.1061 85.944 81.5047C86.5119 80.7429 86.5119 79.6203 85.944 78.6848C86.405 79.2929 87.3539 80.7095 87.521 82.7343C87.6813 84.6521 87.0532 86.0888 86.7592 86.757C86.2847 87.8128 85.6967 88.5813 85.2624 89.0691H77.4775L77.4641 89.0624Z" fill="url(#paint3_linear_5000_9775)"/>
<path d="M85.543 91.2342H77.3037L76.9362 89.0625H85.9106L85.543 91.2342Z" fill="url(#paint4_linear_5000_9775)"/>
<path d="M84.1398 98.0503C83.7188 97.5425 83.2911 97.0346 82.8567 96.5401C82.8367 96.5201 82.8233 96.5 82.8033 96.4867C83.1842 95.7784 83.2777 94.9097 82.9169 94.1746C82.6763 93.6801 82.2286 93.2725 81.7408 93.0319C81.1528 92.7513 80.5113 92.6711 79.8698 92.7713C79.7161 92.7981 79.5691 92.8315 79.422 92.8849C79.2149 92.9584 79.0545 93.1789 79.128 93.4061C79.1948 93.6133 79.422 93.7737 79.6492 93.7002C80.2707 93.493 81.0659 93.5465 81.6138 93.9274C81.8477 94.0877 82.0482 94.3149 82.1685 94.5755C82.389 95.0567 82.3155 95.6247 82.0682 96.0791C81.7274 96.7139 80.8988 97.2752 80.2106 96.7807C80.0636 96.6738 79.9499 96.4934 79.9633 96.3063C79.9767 96.1526 80.0769 96.0056 80.2106 95.9254C80.3442 95.8452 80.5046 95.8185 80.665 95.8318C80.9389 95.8519 81.1394 95.9788 81.2797 96.0657C81.4334 96.1659 81.5403 96.2729 81.6072 96.3464C81.6874 96.2662 81.7876 96.1526 81.8811 95.9989C81.9613 95.8719 82.0148 95.7516 82.0482 95.6514C81.948 95.5311 81.7876 95.3707 81.547 95.2371C81.4802 95.197 80.558 94.6958 79.7896 95.2037C79.4688 95.4175 79.2349 95.7583 79.1548 96.1325C79.1147 96.3196 79.1213 96.5201 79.1681 96.7072C79.2216 96.9077 79.3285 97.0747 79.4688 97.2284C79.6693 97.4423 79.9165 97.616 80.1905 97.7162C80.9322 97.9835 81.7408 97.7229 82.2888 97.1883C82.7164 97.6695 83.1307 98.1573 83.5383 98.6584C83.6787 98.8322 83.9927 98.8121 84.1331 98.6584C84.3001 98.478 84.2868 98.2441 84.1331 98.0637L84.1398 98.0503Z" fill="white"/>
<path d="M79.5423 97.9099C79.3018 97.9099 79.1147 98.1037 79.1147 98.3376C79.1147 98.5715 79.3085 98.7652 79.5423 98.7652C79.7762 98.7652 79.97 98.5715 79.97 98.3376C79.97 98.1037 79.7762 97.9099 79.5423 97.9099Z" fill="white"/>
<path d="M78.8474 119.146C78.6536 119.146 78.4865 118.992 78.4798 118.792L77.2637 92.9181C77.2503 92.7177 77.4107 92.5439 77.6178 92.5306C77.8183 92.5172 77.992 92.6776 78.0054 92.8847L79.2216 118.759C79.2349 118.959 79.0746 119.133 78.8674 119.146C78.8674 119.146 78.854 119.146 78.8474 119.146Z" fill="#060A4C"/>
<path d="M83.9994 118.311C83.9994 118.311 83.986 118.311 83.9794 118.311C83.7722 118.304 83.6185 118.13 83.6252 117.923L84.3803 102.006C84.387 101.806 84.554 101.645 84.7679 101.652C84.975 101.658 85.1287 101.832 85.122 102.039L84.3669 117.957C84.3602 118.157 84.1932 118.311 83.9994 118.311Z" fill="#060A4C"/>
<path d="M79.2817 128.127C79.0812 128.127 78.9209 127.967 78.9142 127.766L78.707 121.111C78.707 120.91 78.8607 120.737 79.0679 120.73C79.275 120.71 79.4421 120.884 79.4487 121.084L79.6559 127.74C79.6559 127.94 79.5022 128.114 79.2951 128.12C79.2951 128.12 79.2884 128.12 79.2817 128.12V128.127Z" fill="#060A4C"/>
<path d="M76.6021 82.5206C76.4885 82.5206 76.3749 82.4738 76.3014 82.3803C76.1544 82.2132 76.1744 81.9593 76.3415 81.8123C77.1367 81.1173 79.0077 79.1594 79.1815 76.119C79.2951 74.1276 78.6469 72.5506 78.0722 71.5683C77.9586 71.3745 78.0254 71.1273 78.2192 71.0137C78.413 70.9001 78.6603 70.9669 78.7739 71.1607C79.402 72.2366 80.117 73.974 79.99 76.1658C79.7963 79.5136 77.7448 81.6519 76.8761 82.4204C76.8026 82.4872 76.7023 82.5206 76.6088 82.5206H76.6021Z" fill="#CD814E"/>
<path d="M85.9105 88.6014C85.837 88.6014 85.7635 88.5814 85.6967 88.5346C85.5297 88.421 85.4896 88.1871 85.6032 88.02C86.0308 87.412 86.3783 86.7504 86.6389 86.0554C87.1267 84.7658 87.3071 83.3892 87.1668 81.9726C87.1468 81.7721 87.2938 81.5917 87.5009 81.5716C87.7014 81.5449 87.8818 81.6986 87.9019 81.9057C88.0489 83.436 87.8551 84.9195 87.3272 86.3161C87.0465 87.0645 86.6656 87.7795 86.2046 88.441C86.1311 88.5413 86.0175 88.6014 85.9039 88.6014H85.9105Z" fill="#CD814E"/>
<path d="M76.288 88.0067C76.1811 88.0067 76.0809 87.96 76.0074 87.8798C75.6198 87.4254 74.9649 86.4631 74.9382 85.0933C74.9182 84.0308 75.279 83.2022 75.5864 82.6943C75.6933 82.5206 75.9205 82.4671 76.0943 82.5673C76.268 82.6743 76.3214 82.9015 76.2145 83.0752C75.9539 83.4962 75.6532 84.1911 75.6733 85.0732C75.7 86.2092 76.2413 87.0177 76.5687 87.392C76.7023 87.5456 76.6823 87.7795 76.5286 87.9132C76.4618 87.9733 76.3749 88 76.288 88V88.0067Z" fill="#CD814E"/>
<path d="M80.431 89.4301H77.0765C76.8694 89.4301 76.709 89.2631 76.709 89.0626C76.709 88.8621 76.8761 88.6951 77.0765 88.6951H80.431C80.6382 88.6951 80.7986 88.8621 80.7986 89.0626C80.7986 89.2631 80.6315 89.4301 80.431 89.4301Z" fill="#724527"/>
<path d="M85.543 91.6019H84.26C84.0529 91.6019 83.8925 91.4348 83.8925 91.2344C83.8925 91.0339 84.0595 90.8668 84.26 90.8668H85.2356L85.4227 89.7776C85.4561 89.5772 85.6566 89.4502 85.8504 89.4769C86.0509 89.5103 86.1845 89.7041 86.1511 89.9046L85.9172 91.3012C85.8838 91.4816 85.7301 91.6086 85.5564 91.6086L85.543 91.6019Z" fill="#724527"/>
<path d="M71.2897 135.244C72.9402 129.905 77.4708 125.902 83.0305 124.86C81.9078 123.343 80.4645 120.95 81.2931 119.327C82.8701 116.233 91.6506 118.137 92.5394 118.338C102.142 120.503 105.423 126.39 113.335 131.375C117.919 134.262 125.296 137.596 136.689 138.097C132.439 147.947 128.183 157.797 123.933 167.646C123.826 167.9 105.409 164.165 103.779 163.824C95.6466 162.107 86.6723 159.848 79.9833 154.683C74.1163 150.152 68.884 143.015 71.283 135.244H71.2897Z" fill="#11D23F"/>
<mask id="mask1_5000_9775" style="mask-type:luminance" maskUnits="userSpaceOnUse" x="70" y="117" width="67" height="51">
<path d="M71.2897 135.244C72.9402 129.905 77.4708 125.902 83.0305 124.86C81.9078 123.343 80.4645 120.95 81.2931 119.327C82.8701 116.233 91.6506 118.137 92.5394 118.338C102.142 120.503 105.423 126.39 113.335 131.375C117.919 134.262 125.296 137.596 136.689 138.097C132.439 147.947 128.183 157.797 123.933 167.646C123.826 167.9 105.409 164.165 103.779 163.824C95.6466 162.107 86.6723 159.848 79.9833 154.683C74.1163 150.152 68.884 143.015 71.283 135.244H71.2897Z" fill="white"/>
</mask>
<g mask="url(#mask1_5000_9775)">
<path d="M113.081 172.05C112.225 167.873 110.709 157.563 115.326 145.902C118.988 136.667 124.788 130.9 127.996 128.134C133.308 132.217 138.621 136.3 143.933 140.389L137.805 173.487C129.566 173.012 121.327 172.531 113.087 172.057L113.081 172.05Z" fill="#15A32C"/>
</g>
<path d="M80.7585 73.3923C80.6315 73.3923 80.5046 73.3322 80.4244 73.2186C79.9098 72.4835 79.2817 71.8487 78.5667 71.3275C78.1056 70.9934 77.6044 70.706 77.0765 70.4788C76.8694 70.3919 76.7758 70.1514 76.8694 69.9442C76.9563 69.7371 77.1968 69.6502 77.404 69.7371C77.9853 69.991 78.5333 70.3051 79.0411 70.6726C79.8297 71.2406 80.5179 71.9422 81.0859 72.7508C81.2129 72.9312 81.1728 73.1851 80.9857 73.3121C80.9122 73.3589 80.832 73.3856 80.7518 73.3856L80.7585 73.3923Z" fill="#CD814E"/>
<path d="M227.762 254.269L200.599 80.2551C199.236 71.528 191.725 65.0996 182.891 65.0996H175.721C168.571 65.0996 162.102 69.3495 159.269 75.9182L84.1464 249.932C79.0412 261.766 87.7148 274.957 100.598 274.957H105.149C112.513 274.957 119.128 270.453 121.828 263.597L137.525 223.697C140.191 216.928 146.679 212.444 153.95 212.337L161.781 212.23C171.103 212.097 178.968 219.133 179.87 228.408L182.831 258.773C183.726 267.954 191.444 274.957 200.666 274.957H210.048C221.047 274.957 229.453 265.141 227.756 254.269H227.762ZM153.048 176.627L165.851 144.459C167.542 140.215 173.776 141.057 174.284 145.595L177.859 177.763C178.146 180.363 176.115 182.635 173.502 182.635H157.124C154.023 182.635 151.905 179.507 153.048 176.627Z" fill="#11D23F"/>
<mask id="mask2_5000_9775" style="mask-type:luminance" maskUnits="userSpaceOnUse" x="82" y="65" width="146" height="210">
<path d="M227.762 254.269L200.599 80.2551C199.236 71.528 191.725 65.0996 182.891 65.0996H175.721C168.571 65.0996 162.102 69.3495 159.269 75.9182L84.1464 249.932C79.0412 261.766 87.7148 274.957 100.598 274.957H105.149C112.513 274.957 119.128 270.453 121.828 263.597L137.525 223.697C140.191 216.928 146.679 212.444 153.95 212.337L161.781 212.23C171.103 212.097 178.968 219.133 179.87 228.408L182.831 258.773C183.726 267.954 191.444 274.957 200.666 274.957H210.048C221.047 274.957 229.453 265.141 227.756 254.269H227.762ZM153.048 176.627L165.851 144.459C167.542 140.215 173.776 141.057 174.284 145.595L177.859 177.763C178.146 180.363 176.115 182.635 173.502 182.635H157.124C154.023 182.635 151.905 179.507 153.048 176.627Z" fill="white"/>
</mask>
<g mask="url(#mask2_5000_9775)">
<g opacity="0.5" style="mix-blend-mode:multiply">
<path d="M61.2996 234.396C62.6428 233.14 86.3716 211.583 110.401 219.568C124.247 224.172 140.017 239.194 140.017 254.269L124.427 276.869C121.48 278.793 110.415 285.522 95.3125 283.698C81.3198 282.007 72.566 274.015 69.9265 271.416C67.0531 259.074 64.173 246.738 61.2996 234.396Z" fill="#15A32C"/>
</g>
<path opacity="0.5" d="M173.368 258.873C173.896 242.809 188.35 231.035 201.588 227.526C216.643 223.537 237.037 228.408 245.197 245.087C251.652 258.285 248.377 274.516 238.795 284.313C224.929 298.479 201.227 296 187.528 285.843C184.976 283.952 172.874 274.002 173.368 258.873Z" fill="#15A32C"/>
</g>
<path d="M234.05 212.07C225.992 211.623 217.766 193.754 222.036 187.165C223.112 185.502 225.531 183.777 225.277 181.138C225.123 179.548 224.067 178.358 222.303 176.367C221.234 175.164 219.984 173.64 217.806 172.391C216.63 171.716 215.554 171.315 214.779 171.081C213.041 159.942 211.297 148.796 209.56 137.656C214.785 138.525 227.194 141.325 237.986 151.723C241.789 155.384 250.529 163.958 252.066 177.002C254.017 193.6 242.704 212.551 234.05 212.07Z" fill="#11D23F"/>
<mask id="mask3_5000_9775" style="mask-type:luminance" maskUnits="userSpaceOnUse" x="209" y="137" width="44" height="76">
<path d="M234.05 212.07C225.992 211.623 217.766 193.754 222.036 187.165C223.112 185.502 225.531 183.777 225.277 181.138C225.123 179.548 224.067 178.358 222.303 176.367C221.234 175.164 219.984 173.64 217.806 172.391C216.63 171.716 215.554 171.315 214.779 171.081C213.041 159.942 211.297 148.796 209.56 137.656C214.785 138.525 227.194 141.325 237.986 151.723C241.789 155.384 250.529 163.958 252.066 177.002C254.017 193.6 242.704 212.551 234.05 212.07Z" fill="white"/>
</mask>
<g mask="url(#mask3_5000_9775)">
<path d="M221.007 178.585C220.592 172.658 220.485 165.855 221.007 158.358C221.468 151.789 222.33 145.835 223.352 140.583L201.588 132.618L202.791 172.865L221 178.585H221.007Z" fill="#15A32C"/>
</g>
<path d="M235.086 199.24C235.18 199.801 235.213 200.369 235.267 200.851C236.062 208.134 233.616 215.398 229.319 221.238C229.246 221.338 229.166 221.445 229.092 221.546C227.869 223.169 226.519 224.686 225.049 226.09C223.492 227.573 221.862 228.996 220.171 230.326C215.193 234.235 209.52 237.396 203.399 239.107C201.748 239.568 200.071 239.922 198.367 240.142C191.317 241.078 183.031 240.323 177.431 235.478C175.881 234.142 174.591 232.511 173.729 230.647C172.42 227.82 172.132 224.626 172.44 221.559C172.74 218.559 173.589 215.625 174.732 212.845C177.826 205.341 182.978 198.839 189.613 194.155C196.122 189.557 203.793 186.791 211.551 185.167C211.899 185.094 212.239 185.027 212.587 184.96C215.226 184.445 217.906 183.978 220.572 184.606C221 184.706 221.454 184.98 221.829 185.414C222.624 186.33 222.523 187.239 222.336 187.967C221.621 190.74 219.864 192.598 219.283 195.478C219.082 196.48 219.042 197.71 220.305 198.939C220.813 199.434 221.381 199.741 221.929 199.882C225.951 200.957 229.687 199.922 232.093 197.055C232.507 196.56 233.195 196.474 233.89 196.921C234.638 197.409 234.932 198.311 235.086 199.233V199.24Z" fill="url(#paint5_linear_5000_9775)"/>
<mask id="mask4_5000_9775" style="mask-type:luminance" maskUnits="userSpaceOnUse" x="172" y="184" width="64" height="57">
<path d="M235.086 199.24C235.18 199.801 235.213 200.369 235.267 200.851C236.062 208.134 233.616 215.398 229.319 221.238C229.246 221.338 229.166 221.445 229.092 221.546C227.869 223.169 226.519 224.686 225.049 226.09C223.492 227.573 221.862 228.996 220.171 230.326C215.193 234.235 209.52 237.396 203.399 239.107C201.748 239.568 200.071 239.922 198.367 240.142C191.317 241.078 183.031 240.323 177.431 235.478C175.881 234.142 174.591 232.511 173.729 230.647C172.42 227.82 172.132 224.626 172.44 221.559C172.74 218.559 173.589 215.625 174.732 212.845C177.826 205.341 182.978 198.839 189.613 194.155C196.122 189.557 203.793 186.791 211.551 185.167C211.899 185.094 212.239 185.027 212.587 184.96C215.226 184.445 217.906 183.978 220.572 184.606C221 184.706 221.454 184.98 221.829 185.414C222.624 186.33 222.523 187.239 222.336 187.967C221.621 190.74 219.864 192.598 219.283 195.478C219.082 196.48 219.042 197.71 220.305 198.939C220.813 199.434 221.381 199.741 221.929 199.882C225.951 200.957 229.687 199.922 232.093 197.055C232.507 196.56 233.195 196.474 233.89 196.921C234.638 197.409 234.932 198.311 235.086 199.233V199.24Z" fill="white"/>
</mask>
<g mask="url(#mask4_5000_9775)">
<path d="M172.674 229.932C174.344 231.857 177.284 234.75 181.708 236.741C191.297 241.052 200.759 237.924 205.951 236.207C214.257 233.46 219.456 228.99 222.497 226.324C225.731 223.484 229.333 220.25 231.511 214.797C233.322 210.26 234.284 203.885 231.912 202.368C230.709 201.599 229.694 202.742 226.793 202.428C223.292 202.047 219.797 199.842 219.964 198.572C220.098 197.563 222.637 196.487 233.208 196.2C236.209 196.06 237.993 196.795 239.055 197.917C245.083 204.319 230.983 227.072 221.381 241.098C214.184 243.464 206.987 245.829 199.79 248.195L181.822 242.428C178.774 238.265 175.727 234.102 172.68 229.939L172.674 229.932Z" fill="url(#paint6_linear_5000_9775)"/>
</g>
<path d="M183.776 231.923C185.293 230.461 184.859 227.548 182.805 225.416C180.752 223.285 177.857 222.742 176.339 224.204C174.822 225.666 175.256 228.579 177.309 230.711C179.363 232.842 182.258 233.385 183.776 231.923Z" fill="url(#paint7_linear_5000_9775)"/>
<path d="M196.206 236.185C199.188 236.166 201.594 234.457 201.581 232.368C201.567 230.28 199.139 228.602 196.157 228.621C193.175 228.64 190.769 230.349 190.783 232.438C190.796 234.527 193.224 236.205 196.206 236.185Z" fill="url(#paint8_linear_5000_9775)"/>
<path d="M215.201 230.178C217.932 228.901 219.437 226.349 218.562 224.476C217.687 222.604 214.763 222.121 212.032 223.398C209.3 224.675 207.795 227.227 208.67 229.1C209.545 230.972 212.469 231.455 215.201 230.178Z" fill="url(#paint9_linear_5000_9775)"/>
<path d="M228.936 216.216C230.486 213.63 230.305 210.672 228.532 209.61C226.759 208.547 224.066 209.783 222.516 212.369C220.966 214.956 221.147 217.914 222.92 218.976C224.693 220.038 227.386 218.803 228.936 216.216Z" fill="url(#paint10_linear_5000_9775)"/>
<path d="M185.152 214.482C186.674 211.943 186.441 209.007 184.634 207.923C182.826 206.84 180.128 208.02 178.606 210.559C177.085 213.098 177.317 216.035 179.125 217.118C180.932 218.201 183.631 217.021 185.152 214.482Z" fill="url(#paint11_linear_5000_9775)"/>
<path d="M185.496 214.758C187.017 212.219 186.785 209.283 184.977 208.2C183.17 207.116 180.471 208.297 178.95 210.836C177.428 213.374 177.66 216.311 179.468 217.394C181.276 218.477 183.974 217.297 185.496 214.758Z" fill="white"/>
<path d="M184.205 231.4C185.723 229.938 185.288 227.025 183.235 224.893C181.181 222.762 178.286 222.219 176.769 223.681C175.251 225.143 175.686 228.056 177.739 230.188C179.792 232.319 182.687 232.862 184.205 231.4Z" fill="#CB3333"/>
<path d="M196.149 235.591C199.131 235.572 201.537 233.863 201.524 231.774C201.51 229.685 199.082 228.007 196.1 228.027C193.118 228.046 190.712 229.755 190.725 231.844C190.739 233.932 193.167 235.61 196.149 235.591Z" fill="#FFF052"/>
<path d="M214.956 229.657C217.688 228.38 219.193 225.827 218.318 223.955C217.443 222.083 214.519 221.6 211.788 222.877C209.056 224.153 207.551 226.706 208.426 228.578C209.301 230.451 212.225 230.934 214.956 229.657Z" fill="#5AE47E"/>
<path d="M228.481 215.856C230.03 213.269 229.85 210.311 228.077 209.249C226.304 208.187 223.61 209.422 222.061 212.009C220.511 214.595 220.692 217.553 222.465 218.615C224.237 219.678 226.931 218.442 228.481 215.856Z" fill="#2971F6"/>
<path d="M197.933 189.812C197.852 189.745 197.779 189.658 197.732 189.551C197.578 189.204 197.739 188.796 198.093 188.642C200.485 187.607 202.964 186.711 205.457 185.983C209.774 184.726 214.257 183.945 218.768 183.651C219.149 183.624 219.476 183.918 219.503 184.299C219.53 184.68 219.236 185.007 218.855 185.034C214.438 185.321 210.061 186.083 205.838 187.313C203.399 188.021 200.973 188.896 198.634 189.912C198.387 190.019 198.113 189.972 197.919 189.812H197.933Z" fill="#663419"/>
<path d="M173.622 215.472C173.402 215.291 173.308 214.99 173.402 214.71C174.778 210.7 176.736 206.938 179.216 203.524C181.274 200.69 183.686 198.118 186.386 195.866C186.68 195.618 187.114 195.659 187.361 195.953C187.608 196.247 187.568 196.681 187.274 196.928C184.662 199.1 182.329 201.592 180.338 204.332C177.939 207.64 176.041 211.275 174.712 215.151C174.585 215.512 174.19 215.705 173.836 215.578C173.756 215.552 173.683 215.512 173.622 215.458V215.472Z" fill="#663419"/>
<path d="M226.052 184.94C222.61 184.566 219.978 188.762 217.231 193.133C215.427 196.006 213.763 198.739 214.765 201.425C215.687 203.898 218.32 204.84 218.454 204.887C223.359 206.564 231.591 201.719 232.213 195.064C232.627 190.627 229.674 185.334 226.052 184.94Z" fill="#11D23F"/>
<path d="M248.317 166.176C248.057 166.176 247.803 166.043 247.662 165.795C246.52 163.804 245.25 161.846 243.9 159.982C242.39 157.904 240.739 155.892 238.995 154.008C238.715 153.7 238.728 153.226 239.035 152.945C239.343 152.665 239.817 152.678 240.098 152.985C241.882 154.91 243.573 156.968 245.116 159.093C246.5 160.997 247.796 163.002 248.965 165.04C249.172 165.401 249.046 165.862 248.685 166.069C248.564 166.136 248.437 166.17 248.31 166.17L248.317 166.176Z" fill="#157D27"/>
<path d="M237.986 211.85C237.752 211.85 237.519 211.736 237.372 211.536C237.131 211.195 237.211 210.727 237.552 210.487C240.191 208.609 242.51 206.357 244.428 203.784C246.607 200.871 247.696 198.325 248.344 196.801C249.413 194.295 252.266 187.647 251.531 178.926C251.271 175.799 250.582 172.712 249.48 169.731C249.333 169.344 249.533 168.909 249.928 168.762C250.315 168.615 250.75 168.816 250.897 169.21C252.039 172.311 252.761 175.538 253.035 178.799C253.797 187.894 250.843 194.797 249.727 197.396C249.052 198.98 247.916 201.626 245.631 204.686C243.613 207.379 241.187 209.745 238.421 211.716C238.287 211.81 238.133 211.856 237.986 211.856V211.85Z" fill="#157D27"/>
<path d="M221.114 206.016C220.84 206.016 220.552 206.003 220.265 205.969C217.605 205.695 216.042 204.506 215.193 203.557C214.926 203.256 214.11 202.334 213.736 200.871C213.269 199.04 213.79 197.536 214.07 196.734C214.358 195.912 214.678 195.478 215.166 194.816C215.52 194.335 215.961 193.741 216.59 192.738L217.345 191.529C218.334 189.938 218.748 189.277 219.49 188.381C220.479 187.185 221.628 186.103 222.904 185.154C223.238 184.907 223.713 184.973 223.96 185.308C224.207 185.642 224.141 186.116 223.806 186.363C222.624 187.239 221.561 188.241 220.652 189.344C219.978 190.159 219.583 190.794 218.628 192.324L217.866 193.54C217.204 194.596 216.723 195.244 216.376 195.719C215.928 196.32 215.708 196.627 215.494 197.235C215.246 197.937 214.839 199.113 215.193 200.503C215.474 201.612 216.108 202.327 216.316 202.561C216.984 203.31 218.24 204.252 220.419 204.479C222.978 204.74 224.942 203.49 226.379 202.581C228.29 201.365 229.667 200.49 230.041 199.046C230.061 198.959 230.081 198.866 230.108 198.766C230.248 198.131 230.462 197.169 231.324 196.514C231.919 196.059 232.694 195.846 233.382 195.939C234.939 196.16 236.142 197.93 236.182 200.062C236.189 200.476 235.861 200.824 235.44 200.831C235.026 200.837 234.679 200.51 234.672 200.089C234.645 198.572 233.87 197.529 233.175 197.429C232.888 197.389 232.507 197.496 232.24 197.703C231.812 198.031 231.692 198.565 231.578 199.086C231.551 199.207 231.525 199.314 231.498 199.421C230.977 201.445 229.219 202.561 227.188 203.851C225.798 204.733 223.766 206.023 221.114 206.023V206.016Z" fill="#157D27"/>
<path d="M91.5036 161.272C91.4435 161.272 91.3767 161.265 91.3165 161.245C86.9664 159.968 83.0171 157.937 79.5757 155.211C76.3682 152.665 72.3789 149.504 70.8286 143.877C69.8463 140.309 69.9532 136.881 71.1493 133.687C72.3722 130.413 74.3502 127.9 77.0298 126.236C78.4598 125.347 80.0769 124.719 81.7675 124.385C81.2998 123.71 80.9456 122.962 80.7318 122.18C80.4778 121.251 80.1705 120.102 80.6917 119.046C81.7408 116.914 85.2958 116.941 87.4208 116.955C88.6703 116.961 90.6082 117.102 92.7198 117.71C96.522 118.799 100.231 120.71 104.728 123.891C106.719 125.301 107.775 126.223 108.791 127.125C109.713 127.934 110.575 128.695 112.092 129.771C115.446 132.137 119.148 134.021 123.098 135.364C123.445 135.485 123.632 135.865 123.512 136.213C123.392 136.56 123.011 136.747 122.663 136.627C118.594 135.244 114.771 133.299 111.317 130.86C109.74 129.744 108.851 128.963 107.902 128.127C106.913 127.252 105.884 126.35 103.953 124.987C99.5825 121.899 96.0008 120.048 92.3456 118.999C90.3743 118.438 88.5701 118.304 87.4007 118.298C85.7034 118.284 82.556 118.258 81.8811 119.641C81.5804 120.249 81.8009 121.057 82.0148 121.839C82.2687 122.788 82.7832 123.677 83.4982 124.412C83.6787 124.592 83.7321 124.866 83.6453 125.107C83.5584 125.347 83.3446 125.515 83.0906 125.548C81.1461 125.755 79.3352 126.377 77.7247 127.379C75.3057 128.889 73.5082 131.174 72.3923 134.168C71.2964 137.095 71.2028 140.249 72.1049 143.537C73.5349 148.736 77.1835 151.629 80.391 154.175C83.692 156.794 87.4876 158.746 91.6774 159.975C92.0315 160.082 92.232 160.45 92.1318 160.804C92.0449 161.098 91.7776 161.285 91.4903 161.285L91.5036 161.272Z" fill="#157D27"/>
<path d="M214.445 99.2798C203.138 100.67 190.682 101.558 177.238 101.558C163.799 101.558 151.344 100.67 140.037 99.2798C139.289 98.6049 130.368 90.4124 130.929 76.8072C131.457 63.877 141.093 50.0312 155.193 50.0312C155.386 50.0312 155.58 50.0313 155.774 50.0379C156.275 50.058 156.843 50.0847 157.485 50.1515C157.678 50.1716 157.872 50.1983 158.079 50.225C159.002 50.352 160.044 50.5525 161.16 50.8799H161.167C161.594 51.0136 162.022 51.1472 162.456 51.3143C163.793 51.8087 165.249 52.5237 167.214 53.7132C167.281 53.76 167.341 53.7934 167.408 53.8268C167.421 53.8468 167.441 53.8535 167.455 53.8602C173.85 57.776 174.371 59.9812 179.316 62.0661C181.634 63.0417 183.532 63.4092 184.555 63.603C187.622 64.171 191.03 64.8125 194.692 63.583C194.725 63.5696 194.718 63.5763 194.772 63.5562C194.772 63.5562 200.759 61.5783 205.343 62.9815C205.577 63.055 205.811 63.1352 205.811 63.1352C205.971 63.1887 206.125 63.2422 206.279 63.3023C206.432 63.3624 206.586 63.4159 206.727 63.4827C209.707 64.7256 211.825 66.6769 212.968 67.8596C213.101 68 213.228 68.1269 213.329 68.2405C215.434 70.5726 217.071 73.4059 218.14 76.3929C218.915 78.5446 219.389 80.7698 219.543 82.9483C220.131 91.3746 215.714 97.6025 214.445 99.2798Z" fill="url(#paint12_linear_5000_9775)"/>
<mask id="mask5_5000_9775" style="mask-type:luminance" maskUnits="userSpaceOnUse" x="130" y="50" width="90" height="52">
<path d="M214.445 99.2798C203.138 100.67 190.682 101.558 177.238 101.558C163.799 101.558 151.344 100.67 140.037 99.2798C139.289 98.6049 130.368 90.4124 130.929 76.8072C131.457 63.877 141.093 50.0312 155.193 50.0312C155.386 50.0312 155.58 50.0313 155.774 50.0379C156.275 50.058 156.843 50.0847 157.485 50.1515C157.678 50.1716 157.872 50.1983 158.079 50.225C159.002 50.352 160.044 50.5525 161.16 50.8799H161.167C161.594 51.0136 162.022 51.1472 162.456 51.3143C163.793 51.8087 165.249 52.5237 167.214 53.7132C167.281 53.76 167.341 53.7934 167.408 53.8268C167.421 53.8468 167.441 53.8535 167.455 53.8602C173.85 57.776 174.371 59.9812 179.316 62.0661C181.634 63.0417 183.532 63.4092 184.555 63.603C187.622 64.171 191.03 64.8125 194.692 63.583C194.725 63.5696 194.718 63.5763 194.772 63.5562C194.772 63.5562 200.759 61.5783 205.343 62.9815C205.577 63.055 205.811 63.1352 205.811 63.1352C205.971 63.1887 206.125 63.2422 206.279 63.3023C206.432 63.3624 206.586 63.4159 206.727 63.4827C209.707 64.7256 211.825 66.6769 212.968 67.8596C213.101 68 213.228 68.1269 213.329 68.2405C215.434 70.5726 217.071 73.4059 218.14 76.3929C218.915 78.5446 219.389 80.7698 219.543 82.9483C220.131 91.3746 215.714 97.6025 214.445 99.2798Z" fill="white"/>
</mask>
<g mask="url(#mask5_5000_9775)">
<path d="M193.101 64.0106C200.365 64.4984 206.546 70.2185 208.584 78.1905C211.01 87.686 206.419 95.9186 205.958 96.7138C203.432 101.091 200.198 103.109 198.601 103.944L231.692 105.2L223.132 57.5355C219.777 56.8405 215.18 56.3527 209.814 57.1947C202.356 58.3574 196.636 61.5716 193.108 64.0039L193.101 64.0106Z" fill="url(#paint13_linear_5000_9775)"/>
</g>
<path d="M208.938 106.283C199.59 107.766 188.952 108.789 177.244 108.789C165.537 108.789 154.899 107.766 145.55 106.283C145.183 106.283 143.218 106.236 141.634 104.231C140.632 102.962 140.01 101.211 140.01 99.2798C151.33 100.67 163.793 101.558 177.238 101.558C190.682 101.558 203.152 100.67 214.465 99.2798C214.465 99.7475 214.425 102.227 208.932 106.283H208.938Z" fill="url(#paint14_linear_5000_9775)"/>
<path d="M183.151 68.6546C182.557 68.2938 182.202 67.512 182.263 66.6833C182.463 64.0438 183.178 59.4331 185.858 55.0294C187.882 51.7016 190.241 49.7771 191.878 48.728C192.487 48.3404 193.215 48.4741 193.703 49.0755C194.144 49.6234 194.585 50.1714 195.026 50.7193C195.754 51.6281 195.621 53.1651 194.738 53.8333C193.335 54.8958 191.618 56.5396 190.081 59.0254C188.043 62.3131 187.174 65.7144 186.793 68.1468C186.593 69.4097 185.504 70.078 184.588 69.53L183.158 68.668L183.151 68.6546Z" fill="url(#paint15_linear_5000_9775)"/>
<path d="M135.854 94.7826C135.687 94.7826 135.527 94.6957 135.406 94.5287C133.569 91.8825 130.455 86.276 130.308 78.4711C130.194 72.2231 132.059 67.7126 132.854 65.7814C136.021 58.1034 141.22 54.1074 144.04 52.4101C144.334 52.2297 144.688 52.3901 144.828 52.7643C144.969 53.1385 144.842 53.5862 144.548 53.7666C141.861 55.3837 136.91 59.186 133.903 66.4764C133.148 68.3006 131.384 72.5773 131.491 78.4377C131.624 85.7682 134.558 91.0472 136.288 93.5397C136.502 93.8538 136.482 94.3282 136.235 94.5955C136.121 94.7225 135.981 94.7826 135.841 94.7826H135.854Z" fill="#601010"/>
<path d="M162.864 52.5102C162.777 52.5303 162.69 52.5236 162.597 52.4835C160.285 51.5881 157.892 51.1136 155.487 51.0802C152.613 51.0334 149.767 51.6081 147.027 52.7775C146.719 52.9112 146.379 52.6973 146.278 52.3097C146.172 51.9155 146.339 51.4945 146.653 51.3609C149.519 50.1313 152.5 49.5366 155.507 49.5834C158.026 49.6235 160.532 50.118 162.951 51.0535C163.265 51.1738 163.439 51.5947 163.345 51.989C163.278 52.2697 163.084 52.4701 162.871 52.5102H162.864Z" fill="#601010"/>
<path d="M182.423 65.8681C182.423 65.8681 182.363 65.8681 182.329 65.8615C182.009 65.7946 181.788 65.4137 181.835 64.9994C182.109 62.8277 182.617 60.7361 183.352 58.7849C185.483 53.1183 189.012 49.8239 191.591 48.0598C191.878 47.866 192.239 47.9997 192.393 48.3672C192.547 48.7347 192.44 49.1891 192.152 49.3829C189.727 51.0401 186.412 54.1273 184.421 59.4331C183.733 61.2573 183.258 63.2086 183.004 65.24C182.958 65.6075 182.704 65.8748 182.423 65.8748V65.8681Z" fill="#601010"/>
<path d="M158.033 122.421C163.734 122.421 168.357 114.995 168.357 105.835C168.357 96.6753 163.734 89.2498 158.033 89.2498C152.331 89.2498 147.708 96.6753 147.708 105.835C147.708 114.995 152.331 122.421 158.033 122.421Z" fill="white"/>
<path d="M158.033 115.598C161.391 115.598 164.114 111.227 164.114 105.835C164.114 100.443 161.391 96.0723 158.033 96.0723C154.674 96.0723 151.952 100.443 151.952 105.835C151.952 111.227 154.674 115.598 158.033 115.598Z" fill="#090B72"/>
<path d="M192.473 122.421C198.175 122.421 202.797 114.995 202.797 105.835C202.797 96.6753 198.175 89.2498 192.473 89.2498C186.771 89.2498 182.149 96.6753 182.149 105.835C182.149 114.995 186.771 122.421 192.473 122.421Z" fill="white"/>
<path d="M192.473 115.598C195.832 115.598 198.554 111.227 198.554 105.835C198.554 100.443 195.832 96.0723 192.473 96.0723C189.115 96.0723 186.392 100.443 186.392 105.835C186.392 111.227 189.115 115.598 192.473 115.598Z" fill="#090B72"/>
<defs>
<linearGradient id="paint0_linear_5000_9775" x1="0.00795746" y1="161.464" x2="322.937" y2="161.464" gradientUnits="userSpaceOnUse">
<stop stop-color="#327F40"/>
<stop offset="0.5" stop-color="#11D33F"/>
<stop offset="1" stop-color="#327F40"/>
</linearGradient>
<linearGradient id="paint1_linear_5000_9775" x1="82.0949" y1="139.628" x2="81.4668" y2="93.8873" gradientUnits="userSpaceOnUse">
<stop stop-color="#2C3B8D"/>
<stop offset="1" stop-color="#070874"/>
</linearGradient>
<linearGradient id="paint2_linear_5000_9775" x1="80.1905" y1="132.077" x2="80.0034" y2="118.465" gradientUnits="userSpaceOnUse">
<stop stop-color="#060944"/>
<stop offset="1" stop-color="#070874"/>
</linearGradient>
<linearGradient id="paint3_linear_5000_9775" x1="81.4267" y1="75.4773" x2="81.4267" y2="94.3682" gradientUnits="userSpaceOnUse">
<stop stop-color="#F1CE90"/>
<stop offset="1" stop-color="#E1946A"/>
</linearGradient>
<linearGradient id="paint4_linear_5000_9775" x1="81.4267" y1="90.8801" x2="81.4267" y2="89.3565" gradientUnits="userSpaceOnUse">
<stop stop-color="#B98056"/>
<stop offset="1" stop-color="#955E38"/>
</linearGradient>
<linearGradient id="paint5_linear_5000_9775" x1="215.414" y1="231.982" x2="190.082" y2="192.1" gradientUnits="userSpaceOnUse">
<stop stop-color="#B98056"/>
<stop offset="0.93" stop-color="#9F5230"/>
</linearGradient>
<linearGradient id="paint6_linear_5000_9775" x1="186.739" y1="245.75" x2="233.691" y2="199.065" gradientUnits="userSpaceOnUse">
<stop stop-opacity="0.5"/>
<stop offset="0.7" stop-color="#9F5230"/>
</linearGradient>
<linearGradient id="paint7_linear_5000_9775" x1="175.926" y1="224.684" x2="184.213" y2="231.43" gradientUnits="userSpaceOnUse">
<stop/>
<stop offset="0.93" stop-color="#9F5230"/>
</linearGradient>
<linearGradient id="paint8_linear_5000_9775" x1="192.455" y1="229.365" x2="199.922" y2="235.444" gradientUnits="userSpaceOnUse">
<stop/>
<stop offset="0.93" stop-color="#9F5230"/>
</linearGradient>
<linearGradient id="paint9_linear_5000_9775" x1="210.404" y1="224.193" x2="216.799" y2="229.399" gradientUnits="userSpaceOnUse">
<stop/>
<stop offset="0.93" stop-color="#9F5230"/>
</linearGradient>
<linearGradient id="paint10_linear_5000_9775" x1="222.784" y1="211.904" x2="228.661" y2="216.688" gradientUnits="userSpaceOnUse">
<stop/>
<stop offset="0.93" stop-color="#9F5230"/>
</linearGradient>
<linearGradient id="paint11_linear_5000_9775" x1="179.177" y1="217.713" x2="183.952" y2="208.555" gradientUnits="userSpaceOnUse">
<stop offset="0.07" stop-color="#9F5230"/>
<stop offset="1"/>
</linearGradient>
<linearGradient id="paint12_linear_5000_9775" x1="175.253" y1="101.178" x2="175.253" y2="58.1703" gradientUnits="userSpaceOnUse">
<stop offset="0.19" stop-color="#CB3333"/>
<stop offset="0.81" stop-color="#8B1515"/>
</linearGradient>
<linearGradient id="paint13_linear_5000_9775" x1="212.393" y1="101.004" x2="212.393" y2="67.9331" gradientUnits="userSpaceOnUse">
<stop offset="0.19" stop-color="#8B1515"/>
<stop offset="0.81" stop-color="#440D0D"/>
</linearGradient>
<linearGradient id="paint14_linear_5000_9775" x1="140.01" y1="104.031" x2="214.471" y2="104.031" gradientUnits="userSpaceOnUse">
<stop offset="0.19" stop-color="#8B1515"/>
<stop offset="0.81" stop-color="#440D0D"/>
</linearGradient>
<linearGradient id="paint15_linear_5000_9775" x1="182.69" y1="66.944" x2="193.516" y2="51.4277" gradientUnits="userSpaceOnUse">
<stop offset="0.19" stop-color="#CB3333"/>
<stop offset="0.81" stop-color="#8B1515"/>
</linearGradient>
</defs>
</svg>
