<svg width="323" height="323" viewBox="0 0 323 323" fill="none" xmlns="http://www.w3.org/2000/svg">
<g opacity="0.2" style="mix-blend-mode:multiply">
<path d="M294.203 20.7151H28.7417C24.3131 20.7151 20.723 24.3052 20.723 28.7338V294.195C20.723 298.624 24.3131 302.214 28.7417 302.214H294.203C298.631 302.214 302.222 298.624 302.222 294.195V28.7338C302.222 24.3052 298.631 20.7151 294.203 20.7151Z" fill="#F17622"/>
</g>
<g opacity="0.2" style="mix-blend-mode:multiply">
<path d="M109.048 182.66C92.4897 182.66 79.065 196.085 79.065 212.644C79.065 216.459 79.7867 220.101 81.0831 223.456C72.8772 218.17 63.1143 215.089 52.6298 215.089C23.5618 215.089 3.05176e-05 238.651 3.05176e-05 267.719C3.05176e-05 296.787 23.5618 320.349 52.6298 320.349C81.6978 320.349 105.26 296.787 105.26 267.719C105.26 257.696 102.453 248.327 97.595 240.355C101.123 241.819 104.992 242.627 109.055 242.627C125.614 242.627 139.039 229.202 139.039 212.644C139.039 196.085 125.614 182.66 109.055 182.66H109.048Z" fill="#F17622"/>
</g>
<g opacity="0.2" style="mix-blend-mode:multiply">
<path d="M229.202 183.856C279.363 183.856 320.027 143.192 320.027 93.0307C320.027 42.8689 279.363 2.20483 229.202 2.20483C179.04 2.20483 138.376 42.8689 138.376 93.0307C138.376 143.192 179.04 183.856 229.202 183.856Z" fill="#F17622"/>
</g>
<path d="M265.95 322.936H56.9946C25.5745 322.936 0.00799561 297.369 0.00799561 265.949V56.9867C0.00799561 25.5665 25.5745 0 56.9946 0H265.95C297.37 0 322.937 25.5665 322.937 56.9867V265.942C322.937 297.362 297.37 322.929 265.95 322.929V322.936ZM56.9946 20.7151C36.9945 20.7151 20.7231 36.9865 20.7231 56.9867V265.942C20.7231 285.942 36.9945 302.214 56.9946 302.214H265.95C285.95 302.214 302.222 285.942 302.222 265.942V56.9867C302.222 36.9865 285.95 20.7151 265.95 20.7151H56.9946Z" fill="url(#paint0_linear_5000_9774)"/>
<path d="M112.75 207.559L109.255 217.014C108.754 218.364 107.257 219.052 105.907 218.558C104.557 218.057 103.869 216.56 104.364 215.21L106.194 210.252C106.696 208.902 106.001 207.405 104.651 206.904L88.1523 200.81C86.8025 200.309 85.3056 201.004 84.8044 202.353L82.9735 207.312C82.4723 208.661 80.9755 209.35 79.6257 208.855C78.2758 208.354 77.5876 206.857 78.0821 205.507L81.5769 196.052C82.0781 194.702 83.5749 194.014 84.9247 194.508L111.2 204.218C112.549 204.719 113.238 206.216 112.743 207.566L112.75 207.559Z" fill="url(#paint1_linear_5000_9774)"/>
<mask id="mask0_5000_9774" style="mask-type:luminance" maskUnits="userSpaceOnUse" x="77" y="194" width="36" height="25">
<path d="M112.75 207.559L109.255 217.014C108.754 218.364 107.257 219.052 105.907 218.558C104.557 218.057 103.869 216.56 104.364 215.21L106.194 210.252C106.696 208.902 106.001 207.405 104.651 206.904L88.1523 200.81C86.8025 200.309 85.3056 201.004 84.8044 202.353L82.9735 207.312C82.4723 208.661 80.9755 209.35 79.6257 208.855C78.2758 208.354 77.5876 206.857 78.0821 205.507L81.5769 196.052C82.0781 194.702 83.5749 194.014 84.9247 194.508L111.2 204.218C112.549 204.719 113.238 206.216 112.743 207.566L112.75 207.559Z" fill="white"/>
</mask>
<g mask="url(#mask0_5000_9774)">
<path d="M104.283 225.995L110.177 208.996C110.698 207.499 109.923 205.855 108.44 205.307L79.893 194.669L84.6441 191.147L115.75 203.656L107.925 225.955L104.29 226.002L104.283 225.995Z" fill="url(#paint2_linear_5000_9774)"/>
</g>
<path d="M46.0422 245.46L107.651 268.226C110.936 269.44 114.583 267.761 115.797 264.475L128.613 229.794C129.827 226.509 128.147 222.862 124.862 221.648L63.2534 198.882C59.9682 197.669 56.321 199.348 55.107 202.633L42.2918 237.314C41.0779 240.599 42.757 244.247 46.0422 245.46Z" fill="url(#paint3_linear_5000_9774)"/>
<mask id="mask1_5000_9774" style="mask-type:luminance" maskUnits="userSpaceOnUse" x="41" y="198" width="89" height="71">
<path d="M46.0422 245.46L107.651 268.226C110.936 269.44 114.583 267.761 115.797 264.475L128.613 229.794C129.827 226.509 128.147 222.862 124.862 221.648L63.2534 198.882C59.9682 197.669 56.321 199.348 55.107 202.633L42.2918 237.314C41.0779 240.599 42.757 244.247 46.0422 245.46Z" fill="white"/>
</mask>
<g mask="url(#mask1_5000_9774)">
<path d="M63.2206 197.382C62.813 198.531 62.4054 199.68 61.9978 200.83C58.1488 211.708 54.2931 222.594 50.4441 233.473C49.0007 237.549 51.1123 242.033 55.1751 243.516L106.375 262.193L106.996 262.42C108.46 262.908 111.681 263.683 115.149 262.267C119.151 260.63 121.925 256.707 122.392 252.123C123.194 252.377 124.143 252.825 124.845 253.68C128.006 257.549 124.818 267.973 118.67 269.423C117.441 269.711 116.218 269.611 115.075 269.31L113.371 274.809L82.1048 266.136L43.842 250.84L36.4714 239.44L51.7738 200.643C55.5894 199.553 59.405 198.471 63.2206 197.382Z" fill="url(#paint4_linear_5000_9774)"/>
</g>
<path d="M121.17 249.898C121.651 250.078 122.185 249.831 122.359 249.35L128.781 231.969C130.551 227.185 128.092 221.852 123.308 220.081L121.791 219.52C121.31 219.34 120.775 219.587 120.602 220.068C120.428 220.549 120.668 221.084 121.149 221.257L122.666 221.819C126.495 223.235 128.453 227.492 127.043 231.321L120.622 248.702C120.441 249.183 120.688 249.717 121.17 249.891V249.898Z" fill="#763820"/>
<path d="M82.1515 259.801L105.005 268.248C105.486 268.428 106.021 268.181 106.194 267.7C106.368 267.218 106.128 266.684 105.647 266.51L82.7931 258.064C82.3119 257.883 81.7773 258.131 81.6036 258.612C81.4299 259.093 81.6704 259.627 82.1515 259.801Z" fill="#5B2818"/>
<path d="M60.9353 251.956L79.1646 258.692C79.6457 258.872 80.1803 258.625 80.354 258.144C80.5278 257.663 80.2872 257.128 79.8061 256.954L61.5768 250.219C61.0956 250.038 60.5611 250.286 60.3873 250.767C60.2136 251.248 60.4541 251.782 60.9353 251.956Z" fill="#763820"/>
<path d="M85.78 208.2L118.423 220.262C118.904 220.442 119.439 220.195 119.613 219.714C119.786 219.233 119.546 218.698 119.065 218.524L86.4215 206.463C85.9404 206.282 85.4058 206.53 85.2321 207.011C85.0583 207.492 85.2989 208.027 85.78 208.2Z" fill="#763820"/>
<path d="M47.838 247.118L51.119 248.334C51.6001 248.515 52.1347 248.267 52.3084 247.786C52.4822 247.305 52.2416 246.77 51.7605 246.597L48.4795 245.381C44.5102 243.91 42.4721 239.487 43.9355 235.518L49.3214 220.937C49.5019 220.456 49.2546 219.921 48.7735 219.747C48.2924 219.574 47.7578 219.814 47.584 220.295L42.1981 234.876C40.3738 239.808 42.9064 245.3 47.838 247.125V247.118Z" fill="#763820"/>
<path d="M49.0608 219.212C49.542 219.393 50.0765 219.146 50.2503 218.665L55.5293 204.371C55.7097 203.89 55.4625 203.355 54.9813 203.182C54.5002 203.008 53.9656 203.248 53.7919 203.73L48.5129 218.023C48.3325 218.504 48.5797 219.039 49.0608 219.212Z" fill="#763820"/>
<path d="M136.071 169.67C118.383 174.575 114.233 179.179 114.033 182.634C113.852 185.774 116.893 188.434 115.59 193.045C114.815 195.778 112.783 198.123 111.727 199.366C110.297 201.044 108.881 202.22 107.858 202.968C106.275 202.253 104.457 201.551 102.419 200.957C101.35 200.643 100.321 200.395 99.3452 200.188C98.5633 200.135 97.561 200.188 97.1199 200.81C96.3849 201.852 97.9352 203.509 97.3939 204.211C96.6522 205.173 92.5225 203.676 89.2883 201.318C87.6511 200.128 85.045 198.237 83.762 194.749C82.773 192.056 82.9936 189.583 83.2675 187.886C85.907 171.575 94.1731 160.148 94.1731 160.148C97.8884 154.668 104.651 146.229 115.61 139.199C123.335 134.247 130.652 131.588 136.071 130.104V169.67Z" fill="#F17622"/>
<mask id="mask2_5000_9774" style="mask-type:luminance" maskUnits="userSpaceOnUse" x="83" y="130" width="54" height="75">
<path d="M136.071 169.67C118.383 174.575 114.233 179.179 114.033 182.634C113.852 185.774 116.893 188.434 115.59 193.045C114.815 195.778 112.783 198.123 111.727 199.366C110.297 201.044 108.881 202.22 107.858 202.968C106.275 202.253 104.457 201.551 102.419 200.957C101.35 200.643 100.321 200.395 99.3452 200.188C98.5633 200.135 97.561 200.188 97.1199 200.81C96.3849 201.852 97.9352 203.509 97.3939 204.211C96.6522 205.173 92.5225 203.676 89.2883 201.318C87.6511 200.128 85.045 198.237 83.762 194.749C82.773 192.056 82.9936 189.583 83.2675 187.886C85.907 171.575 94.1731 160.148 94.1731 160.148C97.8884 154.668 104.651 146.229 115.61 139.199C123.335 134.247 130.652 131.588 136.071 130.104V169.67Z" fill="white"/>
</mask>
<g mask="url(#mask2_5000_9774)">
<path d="M122.813 119.586C119.82 126.569 115.383 139.5 116.071 156.052C116.606 168.969 120.06 179.166 122.813 185.567H158.002V114.976C146.275 116.513 134.541 118.049 122.813 119.586Z" fill="#D04D22"/>
</g>
<path d="M266.924 243.49L266.035 235.731C265.013 226.837 257.121 220.362 248.2 221.097L178.089 226.871V174.288H248.474C257.629 174.288 265.053 166.864 265.053 157.709V150.144C265.053 140.99 257.629 133.566 248.474 133.566H178.089V92.4963H238.811C247.966 92.4963 255.39 85.0722 255.39 75.9175V68.7006C255.39 59.5459 247.966 52.1218 238.811 52.1218H148.767C139.613 52.1218 132.189 59.5459 132.189 68.7006V252.631H132.389C132.282 262.334 140.501 270.058 150.177 269.35L251.655 261.926C261.057 261.238 267.993 252.865 266.917 243.503L266.924 243.49Z" fill="#F17622"/>
<mask id="mask3_5000_9774" style="mask-type:luminance" maskUnits="userSpaceOnUse" x="132" y="52" width="136" height="218">
<path d="M266.924 243.49L266.035 235.731C265.013 226.837 257.121 220.362 248.2 221.097L178.089 226.871V174.288H248.474C257.629 174.288 265.053 166.864 265.053 157.709V150.144C265.053 140.99 257.629 133.566 248.474 133.566H178.089V92.4963H238.811C247.966 92.4963 255.39 85.0722 255.39 75.9175V68.7006C255.39 59.5459 247.966 52.1218 238.811 52.1218H148.767C139.613 52.1218 132.189 59.5459 132.189 68.7006V252.631H132.389C132.282 262.334 140.501 270.058 150.177 269.35L251.655 261.926C261.057 261.238 267.993 252.865 266.917 243.503L266.924 243.49Z" fill="white"/>
</mask>
<g mask="url(#mask3_5000_9774)">
<g opacity="0.5" style="mix-blend-mode:multiply">
<path d="M191.153 220.315C191.153 220.315 179.967 225.467 179.967 246.303C179.967 267.138 193.298 274.956 193.298 274.956H272.363V220.315H191.153Z" fill="#D04D22"/>
</g>
<path d="M189.75 46.9564C188.14 48.0256 175.163 56.9865 173.986 73.5921C173.051 86.8364 180.254 96.0713 181.952 98.1361C205.393 97.9557 228.841 97.7686 252.283 97.5882C258.103 79.4324 263.93 61.2833 269.75 43.1274C243.081 44.4038 216.412 45.6801 189.743 46.9564H189.75Z" fill="#D04D22"/>
</g>
<path d="M265.3 90.378C270.546 89.5962 274.662 93.0777 275.577 93.8461C280.582 98.076 281.318 104.411 281.799 109.202C281.819 109.416 281.839 109.63 281.852 109.877C282.273 117.969 280.616 124.625 279.861 127.251C272.57 152.817 268.922 165.601 257.843 171.381C254.288 173.232 250.873 173.987 248.24 174.308C231.421 174.308 223.482 174.308 219.466 174.308C219.246 174.308 216.339 174.308 216.118 174.308C213.906 174.308 206.376 174.294 204.164 174.294V133.572C206.643 133.559 210.926 133.546 216.265 133.572C235.343 133.659 238.758 134.074 241.698 131.247C245.794 127.318 246.443 119.546 245.875 114.922C245.367 110.766 243.669 107.431 245.4 103.201C245.808 102.206 246.803 99.78 248.862 99.4058C250.672 99.0784 252.771 100.442 254.114 102.814C255.384 96.1449 259.921 91.1933 265.28 90.3914L265.3 90.378Z" fill="#F17622"/>
<mask id="mask4_5000_9774" style="mask-type:luminance" maskUnits="userSpaceOnUse" x="204" y="90" width="78" height="85">
<path d="M265.3 90.378C270.546 89.5962 274.662 93.0777 275.577 93.8461C280.582 98.076 281.318 104.411 281.799 109.202C281.819 109.416 281.839 109.63 281.852 109.877C282.273 117.969 280.616 124.625 279.861 127.251C272.57 152.817 268.922 165.601 257.843 171.381C254.288 173.232 250.873 173.987 248.24 174.308C231.421 174.308 223.482 174.308 219.466 174.308C219.246 174.308 216.339 174.308 216.118 174.308C213.906 174.308 206.376 174.294 204.164 174.294V133.572C206.643 133.559 210.926 133.546 216.265 133.572C235.343 133.659 238.758 134.074 241.698 131.247C245.794 127.318 246.443 119.546 245.875 114.922C245.367 110.766 243.669 107.431 245.4 103.201C245.808 102.206 246.803 99.78 248.862 99.4058C250.672 99.0784 252.771 100.442 254.114 102.814C255.384 96.1449 259.921 91.1933 265.28 90.3914L265.3 90.378Z" fill="white"/>
</mask>
<g mask="url(#mask4_5000_9774)">
<g opacity="0.5" style="mix-blend-mode:multiply">
<path d="M225.474 124.184C222.36 125.387 215.778 128.447 210.919 135.37C205.48 143.121 205.433 151.107 205.407 155.905C205.306 171.782 213.579 183.416 217.208 187.926C240.449 187.873 263.683 187.826 286.924 187.773V88.9414H253.673V93.2314H225.788L225.48 124.184H225.474Z" fill="#D04D22"/>
</g>
</g>
<path d="M153.017 87.2039C157.697 87.2039 161.491 81.1097 161.491 73.5921C161.491 66.0745 157.697 59.9802 153.017 59.9802C148.338 59.9802 144.544 66.0745 144.544 73.5921C144.544 81.1097 148.338 87.2039 153.017 87.2039Z" fill="white"/>
<path d="M153.017 81.6042C155.774 81.6042 158.009 78.0171 158.009 73.5922C158.009 69.1672 155.774 65.5801 153.017 65.5801C150.261 65.5801 148.026 69.1672 148.026 73.5922C148.026 78.0171 150.261 81.6042 153.017 81.6042Z" fill="#090B72"/>
<path d="M181.277 87.2039C185.956 87.2039 189.75 81.1097 189.75 73.5921C189.75 66.0745 185.956 59.9802 181.277 59.9802C176.597 59.9802 172.804 66.0745 172.804 73.5921C172.804 81.1097 176.597 87.2039 181.277 87.2039Z" fill="white"/>
<path d="M181.277 81.6042C184.034 81.6042 186.268 78.0171 186.268 73.5922C186.268 69.1672 184.034 65.5801 181.277 65.5801C178.52 65.5801 176.285 69.1672 176.285 73.5922C176.285 78.0171 178.52 81.6042 181.277 81.6042Z" fill="#090B72"/>
<defs>
<linearGradient id="paint0_linear_5000_9774" x1="0.00799561" y1="161.464" x2="322.937" y2="161.464" gradientUnits="userSpaceOnUse">
<stop offset="0.01" stop-color="#F9712B"/>
<stop offset="0.49" stop-color="#F4A72C"/>
<stop offset="1" stop-color="#F96F2B"/>
</linearGradient>
<linearGradient id="paint1_linear_5000_9774" x1="80.6266" y1="201.061" x2="110.155" y2="211.972" gradientUnits="userSpaceOnUse">
<stop stop-color="#282828"/>
<stop offset="1" stop-color="#424242"/>
</linearGradient>
<linearGradient id="paint2_linear_5000_9774" x1="86.0968" y1="199.602" x2="108.622" y2="213.93" gradientUnits="userSpaceOnUse">
<stop stop-color="#3E3E3E"/>
<stop offset="1"/>
</linearGradient>
<linearGradient id="paint3_linear_5000_9774" x1="50.5685" y1="220.661" x2="120.232" y2="246.402" gradientUnits="userSpaceOnUse">
<stop stop-color="#B98056"/>
<stop offset="0.99" stop-color="#9F5230"/>
</linearGradient>
<linearGradient id="paint4_linear_5000_9774" x1="45.4792" y1="221.71" x2="126.598" y2="251.681" gradientUnits="userSpaceOnUse">
<stop stop-color="#B2744B"/>
<stop offset="1" stop-color="#70321C"/>
</linearGradient>
</defs>
</svg>
