<svg width="323" height="323" viewBox="0 0 323 323" fill="none" xmlns="http://www.w3.org/2000/svg">
<g opacity="0.2" style="mix-blend-mode:multiply">
<path d="M294.195 20.7151H28.7339C24.3053 20.7151 20.7151 24.3052 20.7151 28.7338V294.195C20.7151 298.624 24.3053 302.214 28.7339 302.214H294.195C298.624 302.214 302.214 298.624 302.214 294.195V28.7338C302.214 24.3052 298.624 20.7151 294.195 20.7151Z" fill="#CB3333"/>
</g>
<g opacity="0.2" style="mix-blend-mode:multiply">
<path d="M109.048 182.66C92.4897 182.66 79.065 196.085 79.065 212.644C79.065 216.459 79.7867 220.101 81.083 223.456C72.8772 218.17 63.1143 215.089 52.6298 215.089C23.5618 215.089 0 238.651 0 267.719C0 296.787 23.5618 320.349 52.6298 320.349C81.6978 320.349 105.26 296.787 105.26 267.719C105.26 257.696 102.453 248.327 97.595 240.355C101.123 241.819 104.992 242.627 109.055 242.627C125.614 242.627 139.039 229.202 139.039 212.644C139.039 196.085 125.614 182.66 109.055 182.66H109.048Z" fill="#CB3333"/>
</g>
<g opacity="0.3" style="mix-blend-mode:multiply">
<path d="M229.196 183.85C279.358 183.85 320.022 143.186 320.022 93.0243C320.022 42.8626 279.358 2.19849 229.196 2.19849C179.035 2.19849 138.371 42.8626 138.371 93.0243C138.371 143.186 179.035 183.85 229.196 183.85Z" fill="#CB3333"/>
</g>
<path d="M265.949 322.929H56.9867C25.5665 322.929 0 297.362 0 265.942V56.9867C0 25.5665 25.5665 0 56.9867 0H265.942C297.362 0 322.929 25.5665 322.929 56.9867V265.942C322.929 297.362 297.362 322.929 265.942 322.929H265.949ZM56.9867 20.7151C36.9865 20.7151 20.7151 36.9865 20.7151 56.9867V265.942C20.7151 285.942 36.9865 302.214 56.9867 302.214H265.942C285.942 302.214 302.214 285.942 302.214 265.942V56.9867C302.214 36.9865 285.942 20.7151 265.942 20.7151H56.9867Z" fill="url(#paint0_linear_5000_9772)"/>
<path d="M195.775 150.522C197.038 148.33 197.666 147.234 198.776 146.519C203.206 143.653 207.463 148.765 215.735 148.457C216.858 148.417 226.006 148.076 231.572 142.196C232.628 141.08 234.893 138.354 238.796 136.857C241.536 135.808 242.444 136.376 242.705 136.57C243.834 137.418 243.935 139.677 242.899 142.189C244.195 143.025 245.886 143.766 247.643 143.412C250.33 142.871 250.958 140.312 252.08 140.419C255.141 140.699 260.447 160.779 251.786 168.391C250.243 169.747 248.699 170.322 237.647 171.271C218.943 172.881 211.312 172.28 205.004 171.244C194.519 169.527 192.828 167.462 192.127 166.206C189.414 161.361 194.192 153.275 195.775 150.522Z" fill="#CB3333"/>
<mask id="mask0_5000_9772" style="mask-type:luminance" maskUnits="userSpaceOnUse" x="191" y="136" width="66" height="37">
<path d="M195.775 150.522C197.038 148.33 197.666 147.234 198.776 146.519C203.206 143.653 207.463 148.765 215.735 148.457C216.858 148.417 226.006 148.076 231.572 142.196C232.628 141.08 234.893 138.354 238.796 136.857C241.536 135.808 242.444 136.376 242.705 136.57C243.834 137.418 243.935 139.677 242.899 142.189C244.195 143.025 245.886 143.766 247.643 143.412C250.33 142.871 250.958 140.312 252.08 140.419C255.141 140.699 260.447 160.779 251.786 168.391C250.243 169.747 248.699 170.322 237.647 171.271C218.943 172.881 211.312 172.28 205.004 171.244C194.519 169.527 192.828 167.462 192.127 166.206C189.414 161.361 194.192 153.275 195.775 150.522Z" fill="white"/>
</mask>
<g mask="url(#mask0_5000_9772)">
<path d="M220.48 140.291C223.52 152.38 221.596 159.911 219.257 164.575C216.283 170.495 209.04 178.908 209.04 178.908L183.092 169.353L189.835 128.243L220.48 140.298V140.291Z" fill="#8E1919"/>
</g>
<path d="M243.697 174.348L248.446 174.506C249.504 174.541 250.391 173.711 250.426 172.652L252.135 121.153C252.17 120.095 251.34 119.208 250.281 119.173L245.533 119.016C244.474 118.98 243.588 119.81 243.553 120.869L241.844 172.368C241.809 173.426 242.639 174.313 243.697 174.348Z" fill="url(#paint1_linear_5000_9772)"/>
<mask id="mask1_5000_9772" style="mask-type:luminance" maskUnits="userSpaceOnUse" x="241" y="119" width="12" height="56">
<path d="M243.697 174.348L248.446 174.506C249.504 174.541 250.391 173.711 250.426 172.653L252.135 121.154C252.17 120.095 251.34 119.208 250.281 119.173L245.533 119.016C244.474 118.981 243.588 119.81 243.553 120.869L241.844 172.368C241.809 173.426 242.639 174.313 243.697 174.348Z" fill="white"/>
</mask>
<g mask="url(#mask1_5000_9772)">
<g opacity="0.6" style="mix-blend-mode:multiply">
<path d="M252.682 134.718C251.786 134.297 249.902 133.556 247.43 133.676C244.984 133.796 243.193 134.692 242.344 135.193L242.845 112.419L253.263 112.56L252.682 134.718Z" fill="#3F1E15"/>
</g>
</g>
<path d="M231.024 127.769C231.145 126.613 231.579 122.697 233.851 119.884C234.152 119.516 234.493 119.142 234.493 119.142C235.027 118.641 235.969 117.565 237.486 116.683C237.987 116.389 238.983 115.814 240.373 115.473C241.429 115.213 241.87 115.306 245.779 115.42C246.915 115.453 248.051 115.507 249.187 115.533C251.258 115.58 252.749 115.774 252.889 115.901C253.076 116.075 253.143 116.275 253.143 116.275C253.183 116.362 253.243 116.482 253.317 116.629C253.497 116.957 254.553 118.861 256.09 118.901C257.326 118.935 258.509 117.739 258.916 116.696C259.137 116.135 259.103 115.687 259.544 115.219C259.979 114.758 260.56 114.591 260.995 114.524C261.021 114.518 261.035 114.511 261.035 114.511V114.524C261.122 114.518 261.208 114.504 261.295 114.504L265.378 114.638C266.975 114.691 268.225 116.008 268.171 117.578L267.73 130.883C267.677 132.453 266.347 133.683 264.75 133.629L261.242 133.516C260.874 133.489 259.912 133.362 259.23 132.613C258.689 132.019 258.569 131.31 258.515 130.943C258.288 129.553 258.916 128.818 258.382 128.156C258.148 127.869 257.82 127.749 257.714 127.715C257.119 127.495 256.557 127.682 256.35 127.769C255.401 128.15 254.967 129.232 254.6 130.148C254.339 130.803 254.392 130.903 254.199 131.17C253.624 131.939 252.421 132.032 251.446 131.979C248.706 131.852 245.959 131.718 243.22 131.591C242.939 131.584 242.678 131.491 242.458 131.35C240.968 131.083 241.322 127.795 241.362 126.573C241.362 126.412 241.462 125.971 241.202 125.711C240.914 125.41 240.313 125.47 239.471 125.717C238.268 126.071 237.266 126.372 236.123 127.368C233.878 129.326 233.791 131.611 232.428 131.651C232.013 131.665 231.706 131.464 231.633 131.411C231.272 131.163 230.75 130.542 231.031 127.769H231.024Z" fill="url(#paint2_linear_5000_9772)"/>
<mask id="mask2_5000_9772" style="mask-type:luminance" maskUnits="userSpaceOnUse" x="230" y="114" width="39" height="20">
<path d="M231.024 127.769C231.145 126.613 231.579 122.697 233.851 119.884C234.152 119.516 234.493 119.142 234.493 119.142C235.027 118.641 235.969 117.565 237.486 116.683C237.987 116.389 238.983 115.814 240.373 115.473C241.429 115.213 241.87 115.306 245.779 115.42C246.915 115.453 248.051 115.507 249.187 115.533C251.258 115.58 252.749 115.774 252.889 115.901C253.076 116.075 253.143 116.275 253.143 116.275C253.183 116.362 253.243 116.482 253.317 116.629C253.497 116.957 254.553 118.861 256.09 118.901C257.326 118.935 258.509 117.739 258.916 116.696C259.137 116.135 259.103 115.687 259.544 115.219C259.979 114.758 260.56 114.591 260.995 114.524C261.021 114.518 261.035 114.511 261.035 114.511V114.524C261.122 114.518 261.208 114.504 261.295 114.504L265.378 114.638C266.975 114.691 268.225 116.008 268.171 117.578L267.73 130.883C267.677 132.453 266.347 133.683 264.75 133.629L261.242 133.516C260.874 133.489 259.912 133.362 259.23 132.613C258.689 132.019 258.569 131.31 258.515 130.943C258.288 129.553 258.916 128.818 258.382 128.156C258.148 127.869 257.82 127.749 257.714 127.715C257.119 127.495 256.557 127.682 256.35 127.769C255.401 128.15 254.967 129.232 254.6 130.148C254.339 130.803 254.392 130.903 254.199 131.17C253.624 131.939 252.421 132.032 251.446 131.979C248.706 131.852 245.959 131.718 243.22 131.591C242.939 131.584 242.678 131.491 242.458 131.35C240.968 131.083 241.322 127.795 241.362 126.573C241.362 126.412 241.462 125.971 241.202 125.711C240.914 125.41 240.313 125.47 239.471 125.717C238.268 126.071 237.266 126.372 236.123 127.368C233.878 129.326 233.791 131.611 232.428 131.651C232.013 131.665 231.706 131.464 231.633 131.411C231.272 131.163 230.75 130.542 231.031 127.769H231.024Z" fill="white"/>
</mask>
<g mask="url(#mask2_5000_9772)">
<path d="M233.744 131.023C233.33 131.117 232.762 131.163 232.394 130.849C230.597 129.326 233.731 119.496 239.711 117.471C240.66 117.151 242.765 117.204 246.948 117.331C249.902 117.418 252.341 117.558 254.012 117.672C253.47 116.229 252.936 114.785 252.394 113.342L231.846 114.297L224.148 124.568C225.491 129.74 228.605 132.847 231.165 132.567C231.666 132.513 232.648 132.273 233.744 131.016V131.023Z" fill="url(#paint3_linear_5000_9772)"/>
<path d="M240.841 125.537C241.469 125.283 242.418 125.985 242.872 126.639C243.213 127.127 243.373 127.715 243.353 128.323C243.327 129.152 244.042 129.82 244.87 129.847L254.6 130.148C254.833 130.382 255.268 130.889 255.375 131.624C255.375 131.624 255.502 132.446 255.034 133.315C253.21 136.71 243.808 136.837 240.921 132.473C239.29 130.014 239.665 126.018 240.847 125.53L240.841 125.537Z" fill="url(#paint4_linear_5000_9772)"/>
<path d="M260.995 114.531C261.796 114.417 263.547 114.29 264.67 115.366C265.826 116.469 265.712 118.26 265.652 119.195C265.432 122.81 265.231 127.902 264.937 134.29C266.334 134.331 267.73 134.371 269.127 134.411L269.808 113.889C269.053 113.535 267.276 112.82 264.97 113.074C263.053 113.288 261.669 114.076 260.988 114.531H260.995Z" fill="url(#paint5_linear_5000_9772)"/>
<path d="M257.333 127.642C258.074 127.308 259.25 127.715 259.792 128.47C260.594 129.593 259.464 130.769 260.139 131.778C260.767 132.714 262.411 132.7 265.285 132.64C267.951 132.587 269.08 132.239 269.381 132.774C269.722 133.368 268.813 134.685 267.83 135.447C264.857 137.739 258.589 136.897 256.745 133.382C255.682 131.35 256.003 128.243 257.326 127.648L257.333 127.642Z" fill="url(#paint6_linear_5000_9772)"/>
</g>
<path d="M252.488 115.447C252.428 115.373 252.341 115.32 252.234 115.32L242.231 115.026C242.044 115.026 241.89 115.166 241.89 115.353C241.89 115.54 242.03 115.694 242.211 115.694L252.214 115.988C252.401 115.988 252.555 115.848 252.555 115.66C252.555 115.58 252.528 115.5 252.481 115.447H252.488Z" fill="#5B5B5B"/>
<path d="M267.677 115.346C267.57 115.213 267.376 115.179 267.229 115.279C267.075 115.38 267.035 115.594 267.136 115.741C267.443 116.202 267.69 116.689 267.864 117.204C268.191 118.16 268.205 118.961 268.091 120.739C268.004 122.075 267.877 123.432 267.717 124.782C267.697 124.962 267.824 125.129 268.011 125.156C268.191 125.176 268.358 125.049 268.385 124.862C268.552 123.499 268.679 122.129 268.766 120.779C268.886 118.981 268.873 118.059 268.505 116.983C268.312 116.415 268.038 115.874 267.697 115.366C267.697 115.36 267.69 115.353 267.683 115.346H267.677Z" fill="#5B5B5B"/>
<path d="M241.97 141.006C245.679 138.527 251.212 138.28 255.141 140.719C261.857 144.889 262.825 156.209 257.814 163.172C254.165 168.243 246.768 171.798 241.97 169.46C234.312 165.724 233.129 146.914 241.97 141.006Z" fill="#CB3333"/>
<path d="M231.572 142.203C232.267 141.187 234.011 138.962 237.139 137.612C239.444 136.616 241.522 136.529 242.705 136.576" stroke="#8E1919" stroke-width="1.33646" stroke-linecap="round" stroke-linejoin="round"/>
<path d="M251.786 168.39C253.317 167.568 256.644 165.504 258.903 161.414C259.498 160.332 262.224 155.113 260.527 148.838C260.052 147.101 258.977 143.118 255.141 140.719C252.388 138.995 249.588 138.955 248.378 139.022C242.15 139.369 238.575 144.728 237.947 145.677C235.208 149.787 235.241 154.057 235.348 155.714" stroke="#8E1919" stroke-width="1.33646" stroke-linecap="round" stroke-linejoin="round"/>
<path d="M233.156 120.993C233.129 120.959 233.089 120.926 233.049 120.906C232.882 120.819 232.682 120.886 232.595 121.046C231.84 122.503 231.272 124.027 230.911 125.59C230.49 127.421 230.43 128.938 230.744 129.981C230.944 130.662 231.265 131.304 231.693 131.898C231.78 132.045 232.007 132.079 232.16 131.972C232.307 131.865 232.341 131.658 232.234 131.504C231.846 130.97 231.559 130.395 231.379 129.787C231.105 128.865 231.171 127.428 231.559 125.737C231.907 124.234 232.454 122.757 233.183 121.354C233.243 121.233 233.23 121.093 233.149 120.993H233.156Z" fill="#5B5B5B"/>
<path d="M91.2708 240.419C80.6927 240.419 76.8504 212.3 76.8504 193.395C76.8504 174.491 80.6927 146.372 91.2708 146.372C101.849 146.372 105.691 174.491 105.691 193.395C105.691 212.3 101.849 240.419 91.2708 240.419ZM91.2708 149.713C87.6557 149.713 80.9066 164.715 80.9066 193.395C80.9066 222.076 87.6557 237.078 91.2708 237.078C94.8859 237.078 101.635 222.076 101.635 193.395C101.635 164.715 94.8859 149.713 91.2708 149.713Z" fill="url(#paint7_linear_5000_9772)"/>
<path d="M88.6045 240.419C78.0265 240.419 74.1841 212.3 74.1841 193.395C74.1841 174.491 78.0265 146.372 88.6045 146.372C99.1826 146.372 103.025 174.491 103.025 193.395C103.025 212.3 99.1826 240.419 88.6045 240.419ZM88.6045 149.713C84.9894 149.713 78.2403 164.715 78.2403 193.395C78.2403 222.076 84.9894 237.078 88.6045 237.078C92.2197 237.078 98.9688 222.076 98.9688 193.395C98.9688 164.715 92.2197 149.713 88.6045 149.713Z" fill="url(#paint8_linear_5000_9772)"/>
<path d="M94.2177 240.419C83.6396 240.419 79.7973 212.3 79.7973 193.395C79.7973 174.491 83.6396 146.372 94.2177 146.372C104.796 146.372 108.638 174.491 108.638 193.395C108.638 212.3 104.796 240.419 94.2177 240.419ZM94.2177 149.713C90.6026 149.713 83.8535 164.715 83.8535 193.395C83.8535 222.076 90.6026 237.078 94.2177 237.078C97.8328 237.078 104.582 222.076 104.582 193.395C104.582 164.715 97.8328 149.713 94.2177 149.713Z" fill="url(#paint9_linear_5000_9772)"/>
<path d="M103.045 178.187C98.755 178.233 90.4689 177.739 81.5079 173.182C72.2797 168.491 67.2479 162.042 64.0137 157.639C58.5342 150.174 53.6494 142.296 54.164 132.065C54.625 122.937 67.0341 118.674 71.9656 119.777C71.9656 119.777 80.392 121.808 78.3472 133.201C79.1023 129.012 81.5213 126.385 83.5193 126.492C83.9202 126.512 84.7689 126.566 85.25 127.308C85.25 127.308 88.3707 131.137 83.8935 140.619C83.8935 140.619 82.5571 143.699 80.1581 146.212C80.8932 147.388 83.1651 150.696 87.5287 152.239C94.485 154.712 100.552 150.522 101.161 150.088C101.501 153.79 101.809 157.552 102.083 161.381C102.49 167.107 102.804 172.707 103.038 178.187H103.045Z" fill="#CB3333"/>
<mask id="mask3_5000_9772" style="mask-type:luminance" maskUnits="userSpaceOnUse" x="54" y="119" width="50" height="60">
<path d="M103.045 178.187C98.755 178.233 90.4689 177.739 81.5079 173.182C72.2797 168.491 67.2479 162.042 64.0137 157.639C58.5342 150.174 53.6494 142.296 54.164 132.065C54.625 122.937 67.0341 118.674 71.9656 119.777C71.9656 119.777 80.392 121.808 78.3472 133.201C79.1023 129.012 81.5213 126.385 83.5193 126.492C83.9202 126.512 84.7689 126.566 85.25 127.308C85.25 127.308 88.3707 131.137 83.8935 140.619C83.8935 140.619 82.5571 143.699 80.1581 146.212C80.8932 147.388 83.1651 150.696 87.5287 152.239C94.485 154.712 100.552 150.522 101.161 150.088C101.501 153.79 101.809 157.552 102.083 161.381C102.49 167.107 102.804 172.707 103.038 178.187H103.045Z" fill="white"/>
</mask>
<g mask="url(#mask3_5000_9772)">
<path d="M106.894 137.565C104.649 138.554 100.887 140.578 97.6991 144.508C91.8053 151.771 92.1929 160.251 92.3466 163.586C92.4535 165.971 92.801 173.489 97.6991 179.93C97.6991 179.93 98.4075 180.859 105.691 188.31L106.894 137.571V137.565Z" fill="#8E1919"/>
</g>
<path d="M94.2778 240.867C94.2778 240.867 94.2177 240.867 94.1843 240.867C84.3947 240.679 79.8374 209.58 79.6703 193.756C79.5033 177.532 83.3723 146.907 93.476 146.152C94.7122 146.058 95.9618 146.412 97.1646 147.214C98.0867 147.822 98.3474 149.065 97.7326 149.994C97.1245 150.916 95.8816 151.177 94.9527 150.562C94.505 150.268 94.0974 150.128 93.77 150.154C92.4335 150.255 89.4733 153.295 86.8672 164.06C84.7689 172.754 83.5728 183.84 83.6797 193.716C83.7799 203.586 85.2166 214.692 87.5087 223.412C90.0947 233.229 92.9614 236.83 94.2578 236.857H94.2645C94.5785 236.857 97.1779 236.47 101.121 224.542C101.468 223.493 102.604 222.918 103.653 223.265C104.702 223.613 105.277 224.749 104.929 225.798C101.488 236.209 98.2003 240.86 94.2778 240.86V240.867Z" fill="url(#paint10_linear_5000_9772)"/>
<path d="M91.0637 240.867C91.0637 240.867 91.0035 240.867 90.9701 240.867C81.1805 240.68 76.6232 209.58 76.4562 193.757C76.2891 177.532 80.1582 146.907 90.2618 146.152C91.5047 146.058 92.7476 146.419 93.9504 147.214C94.8726 147.822 95.1265 149.065 94.5184 149.994C93.9103 150.916 92.6674 151.17 91.7386 150.562C91.2909 150.268 90.8899 150.128 90.5558 150.155C89.2194 150.255 86.2591 153.295 83.653 164.06C81.5548 172.754 80.3586 183.84 80.4655 193.717C80.5658 203.586 82.0025 214.692 84.2945 223.413C86.8806 233.229 89.7473 236.831 91.0436 236.857H91.0503C91.3644 236.857 93.9638 236.47 97.9063 224.542C98.2538 223.493 99.3898 222.918 100.439 223.266C101.488 223.613 102.063 224.749 101.715 225.798C98.2739 236.209 94.9862 240.86 91.0637 240.86V240.867Z" fill="url(#paint11_linear_5000_9772)"/>
<path d="M88.8585 240.867H88.8318C87.2414 240.86 85.6978 240.078 84.2477 238.548C77.5119 231.418 72.5269 207.268 73.5827 186.867C74.1173 176.503 77.9396 146.773 88.1168 146.152C89.353 146.078 90.5758 146.432 91.772 147.208C92.7008 147.809 92.9614 149.052 92.36 149.981C91.7586 150.91 90.5157 151.17 89.5869 150.569C89.1325 150.275 88.7248 150.128 88.364 150.155C83.9604 150.422 78.521 169.059 77.5921 187.074C76.5096 208.01 81.7552 230.061 87.1679 235.795C87.8027 236.47 88.4241 236.857 88.8518 236.857C89.1525 236.857 91.8388 236.503 95.7412 224.549C96.082 223.493 97.2114 222.918 98.2672 223.266C99.323 223.606 99.8976 224.742 99.5502 225.791C96.1489 236.209 92.8478 240.86 88.8518 240.86L88.8585 240.867Z" fill="url(#paint12_linear_5000_9772)"/>
<path d="M96.042 240.867C94.9728 240.867 93.9371 240.399 92.9748 239.477C87.7225 234.445 82.9113 212.928 82.6774 193.422C82.4502 174.478 86.4395 152.988 91.0503 148.337C91.8856 147.495 92.8011 147.067 93.77 147.067H93.7767C94.9728 147.067 96.042 147.702 96.9575 148.945C97.619 149.834 97.4252 151.09 96.5365 151.751C95.6477 152.413 94.3915 152.219 93.7299 151.33C93.7232 151.324 93.7166 151.31 93.7099 151.304C91.0303 154.15 86.4329 172.794 86.6801 193.375C86.7937 203.112 88.1168 213.863 90.3019 222.871C92.761 233.015 95.1733 236.296 96.0086 236.81C96.4496 236.45 98.1536 234.478 100.185 224.762C100.412 223.68 101.468 222.985 102.557 223.212C103.64 223.439 104.335 224.502 104.108 225.584C101.862 236.329 99.5569 240.76 96.1556 240.867C96.1155 240.867 96.0821 240.867 96.042 240.867Z" fill="url(#paint13_linear_5000_9772)"/>
<path d="M82.7509 141.147C83.9136 140.418 84.535 139.309 84.8491 138.407C85.0295 137.906 85.2033 137.398 85.3837 136.897C85.965 135.059 86.1722 133.589 86.2524 132.653C86.3192 131.865 86.3259 131.143 86.2524 130.381C86.2123 129.994 86.1254 129.379 85.9049 128.664C85.8849 128.604 85.7044 128.043 85.3369 127.421C85.2233 127.234 85.1298 127.094 84.9761 126.96C84.6887 126.713 84.3747 126.646 84.2076 126.593C83.2788 126.325 82.4502 126.673 82.1361 126.806C80.6526 127.428 79.9109 128.925 79.4565 129.874C78.9286 130.983 78.521 132.319 78.3806 134.137C78.267 135.687 78.2737 138.414 79.5099 141.741C80.0713 141.828 81.4612 141.955 82.7509 141.153V141.147Z" fill="#CB3333"/>
<path d="M72.5671 119.977C74.4114 120.605 75.5139 121.781 75.9683 122.263C77.7926 124.214 78.521 126.86 78.4608 128.47C78.1935 134.992 64.3211 142.223 58.5409 137.866C55.1797 135.333 54.5115 128.838 56.1821 126.492C56.2756 126.365 56.9372 125.457 58.0063 124.468C59.0354 123.519 59.9576 122.937 60.5322 122.583C60.8998 122.356 62.0023 121.688 63.6328 121.026C65.2098 120.385 66.9406 119.683 69.266 119.61C70.2282 119.576 71.2774 119.543 72.5671 119.977Z" fill="#CB3333"/>
<path d="M63.145 139.837C61.6482 139.837 59.6101 139.57 57.7992 138.126C55.9482 136.65 55.2065 134.652 54.8991 133.235C54.8189 132.874 55.0528 132.52 55.4136 132.44C55.7744 132.359 56.1286 132.593 56.2088 132.954C56.4627 134.157 57.0909 135.848 58.6345 137.077C60.6793 138.708 63.1049 138.534 64.4147 138.44C68.4307 138.146 73.0616 135.667 75.6743 132.4C76.7769 131.023 78.0131 128.878 77.6523 126.479C77.2514 123.813 75.0729 122.122 74.1508 121.521C70.4688 119.108 65.1698 119.743 60.9532 123.098C60.6659 123.325 60.2449 123.278 60.011 122.991C59.7838 122.704 59.8306 122.283 60.1179 122.049C64.7822 118.333 70.7161 117.672 74.8791 120.398C75.9483 121.1 78.4876 123.078 78.9687 126.272C79.3095 128.544 78.5344 130.95 76.7168 133.222C73.8902 136.756 68.8718 139.443 64.5082 139.763C64.1474 139.79 63.6796 139.824 63.145 139.824V139.837Z" fill="#8E1919"/>
<path d="M85.2032 137.565C85.123 137.565 85.0428 137.552 84.9693 137.518C84.6218 137.385 84.4481 137.004 84.5818 136.656C85.6376 133.863 86.3058 130.168 85.0027 128.196C84.7488 127.809 84.3211 127.167 83.6329 127.04C82.6573 126.86 81.7351 127.816 81.6349 127.929C81.3809 128.203 80.96 128.216 80.6927 127.963C80.4254 127.709 80.4053 127.288 80.6592 127.02C81.0134 126.646 82.283 125.437 83.8801 125.731C85.1297 125.965 85.8046 126.98 86.1254 127.468C88.1167 130.482 86.4127 135.627 85.838 137.137C85.7378 137.405 85.4839 137.572 85.2099 137.572L85.2032 137.565Z" fill="#8E1919"/>
<path d="M86.1521 223.459C85.8581 223.459 85.5841 223.259 85.5039 222.958C83.7665 216.276 82.5905 209.406 81.9957 202.55C80.9533 190.502 81.7017 178.314 84.2143 166.346C84.2878 165.985 84.6486 165.751 85.0028 165.831C85.3636 165.905 85.5975 166.259 85.5173 166.62C83.0315 178.467 82.2964 190.516 83.3255 202.437C83.9135 209.219 85.0763 216.009 86.7936 222.624C86.8872 222.978 86.6733 223.346 86.3125 223.439C86.259 223.453 86.1989 223.459 86.1454 223.459H86.1521Z" fill="#686868"/>
<path d="M77.4518 194.405C77.091 194.405 76.7903 194.111 76.7836 193.75C76.6499 185.43 77.3983 177.098 79.0021 168.965C80.1381 163.212 81.7218 157.485 83.7131 151.952C83.8401 151.605 84.221 151.424 84.5684 151.551C84.9159 151.678 85.0964 152.059 84.9694 152.406C83.0048 157.873 81.4411 163.533 80.3118 169.226C78.7214 177.265 77.9864 185.504 78.1134 193.73C78.1134 194.097 77.826 194.405 77.4585 194.411H77.4451L77.4518 194.405Z" fill="#686868"/>
<path d="M73.4424 198.668C73.0883 198.668 72.7942 198.387 72.7742 198.033C72.4 189.827 72.9413 181.568 74.3846 173.482C75.6944 166.132 77.7659 158.882 80.5257 151.932C80.6593 151.591 81.0536 151.418 81.3944 151.558C81.7352 151.691 81.9022 152.086 81.7686 152.427C79.0355 159.289 76.9974 166.453 75.701 173.716C74.2777 181.702 73.7431 189.861 74.1107 197.973C74.1307 198.341 73.8434 198.655 73.4758 198.668C73.4625 198.668 73.4558 198.668 73.4424 198.668Z" fill="#282828"/>
<path d="M221.723 252.013L184.014 185.27C183.106 183.666 184.041 181.648 185.852 181.314C192.287 180.118 205.05 176.236 212.682 163.793C219.23 153.108 218.214 142.269 217.74 138.788C216.283 128.083 210.764 120.926 208.445 118.019C180.326 82.7301 110.442 103.245 106.794 104.534C105.264 105.076 104.027 105.964 104.027 105.964C100.593 107.829 98.588 111.551 98.8486 115.453L108.885 265.665C109.233 270.864 113.55 274.9 118.755 274.9H137.045C142.771 274.9 147.302 270.055 146.914 264.342L142.41 197.512C142.344 196.55 143.065 195.721 144.028 195.648L146.52 195.454C147.195 195.4 147.837 195.741 148.177 196.329L189.367 268.231C192.24 273.249 198.348 275.414 203.741 273.336L215.735 268.712C222.404 266.139 225.231 258.247 221.716 252.026L221.723 252.013ZM139.076 159.577L137.947 129.814C137.833 126.8 140.299 124.314 143.313 124.434C155.287 124.915 179.283 127.495 180.419 139.322C181.589 151.458 158.268 160.619 145.718 164.348C142.471 165.31 139.196 162.958 139.069 159.57L139.076 159.577Z" fill="#CB3333"/>
<mask id="mask4_5000_9772" style="mask-type:luminance" maskUnits="userSpaceOnUse" x="98" y="97" width="126" height="178">
<path d="M221.723 252.013L184.014 185.27C183.106 183.666 184.041 181.648 185.852 181.314C192.287 180.118 205.05 176.236 212.682 163.793C219.23 153.108 218.214 142.269 217.74 138.788C216.283 128.083 210.764 120.926 208.445 118.019C180.326 82.7301 110.442 103.245 106.794 104.534C105.264 105.076 104.027 105.964 104.027 105.964C100.593 107.829 98.588 111.551 98.8486 115.453L108.885 265.665C109.233 270.864 113.55 274.9 118.755 274.9H137.045C142.771 274.9 147.302 270.055 146.914 264.342L142.41 197.512C142.344 196.55 143.065 195.721 144.028 195.648L146.52 195.454C147.195 195.4 147.837 195.741 148.177 196.329L189.367 268.231C192.24 273.249 198.348 275.414 203.741 273.336L215.735 268.712C222.404 266.139 225.231 258.247 221.716 252.026L221.723 252.013ZM139.076 159.577L137.947 129.814C137.833 126.8 140.299 124.314 143.313 124.434C155.287 124.915 179.283 127.495 180.419 139.322C181.589 151.458 158.268 160.619 145.718 164.348C142.471 165.31 139.196 162.958 139.069 159.57L139.076 159.577Z" fill="white"/>
</mask>
<g mask="url(#mask4_5000_9772)">
<g opacity="0.5" style="mix-blend-mode:multiply">
<path d="M101.635 249.133C107.622 239.731 119.784 239.256 125.892 239.022C131.752 238.795 143.881 238.321 151.171 247.295C157.452 255.026 157.833 266.921 152.394 277.325L104.575 278.094C97.7526 268.718 96.5297 257.138 101.622 249.133H101.635Z" fill="#8E1919"/>
</g>
<g opacity="0.5" style="mix-blend-mode:multiply">
<path d="M179.063 270.275C171.772 260.646 169.861 244.555 178.909 232.734C188.097 220.726 204.389 218.621 216.143 223.453C229.949 229.126 234.252 243.025 235.141 245.912C236.183 249.273 239.959 261.468 234.065 270.583C224.523 285.344 192.327 287.81 179.056 270.275H179.063Z" fill="#8E1919"/>
</g>
</g>
<path d="M99.049 123.773C107.175 118.4 118.795 112.279 133.603 109.065C171.819 100.772 203.026 117.979 212.581 123.773C213.263 123.666 215.782 123.191 217.199 121.02C218.983 118.293 218.341 113.923 215.214 110.876C215.274 104.033 214.546 85.1957 201.562 70.2007C182.09 47.7014 145.117 45.4561 121.127 63.2577C99.2495 79.4891 96.2625 106.405 95.788 111.477C93.6296 113.068 92.5672 115.807 93.1017 118.42C93.6898 121.307 96.1088 123.505 99.0557 123.779L99.049 123.773Z" fill="url(#paint14_linear_5000_9772)"/>
<mask id="mask5_5000_9772" style="mask-type:luminance" maskUnits="userSpaceOnUse" x="92" y="51" width="127" height="73">
<path d="M99.049 123.773C107.175 118.4 118.795 112.279 133.603 109.065C171.819 100.772 203.026 117.979 212.581 123.773C213.263 123.666 215.782 123.191 217.199 121.02C218.983 118.293 218.341 113.923 215.214 110.876C215.274 104.033 214.546 85.1957 201.562 70.2007C182.09 47.7014 145.117 45.4561 121.127 63.2577C99.2495 79.4891 96.2625 106.405 95.788 111.477C93.6296 113.068 92.5672 115.807 93.1017 118.42C93.6898 121.307 96.1088 123.505 99.0557 123.779L99.049 123.773Z" fill="white"/>
</mask>
<g mask="url(#mask5_5000_9772)">
<path d="M160.787 45.7704C178.241 49.0848 189.567 63.0842 188.819 76.3285C188.204 87.1873 179.658 94.2905 177.666 95.8676C180.747 96.7429 193.33 100.726 200.353 113.629C203.507 119.423 204.436 124.982 204.71 128.638C215.174 127.014 225.639 125.39 236.103 123.766L228.098 53.0073C205.658 50.595 183.226 48.176 160.787 45.7637V45.7704Z" fill="url(#paint15_linear_5000_9772)"/>
</g>
<path d="M149.627 48.8442C144.068 49.4389 140.753 53.0808 139.991 53.9628C138.855 58.3397 137.84 63.7457 137.519 69.9937C137.005 80.0238 138.461 88.4168 139.991 94.3306C142.157 94.0433 144.422 93.796 146.781 93.6022C149.273 93.3951 151.672 93.2681 153.971 93.1946C153.597 86.2517 153.75 77.558 155.441 67.7484C156.503 61.5673 157.974 56.1012 159.524 51.4169C158.508 50.7086 154.773 48.2962 149.634 48.8509L149.627 48.8442Z" fill="url(#paint16_linear_5000_9772)"/>
<path d="M213.457 110.876C213.356 110.876 213.249 110.849 213.156 110.789C199.404 102.55 171.211 89.6061 136.904 95.54C123.139 97.9189 109.954 103.051 97.7259 110.782C97.4185 110.976 97.0242 110.856 96.8505 110.515C96.6767 110.174 96.7837 109.733 97.0911 109.539C109.453 101.714 122.778 96.529 136.704 94.1234C171.378 88.1294 199.865 101.2 213.757 109.526C214.071 109.713 214.185 110.148 214.018 110.495C213.904 110.736 213.684 110.869 213.45 110.869L213.457 110.876Z" fill="#B93B1E"/>
<path d="M137.78 79.2485C137.432 79.2485 137.151 78.9411 137.138 78.5535C137.071 75.6802 137.105 72.7867 137.245 69.9534C137.385 67.0867 137.506 64.6143 138.047 61.36C138.381 59.362 138.815 57.3573 139.35 55.4061C139.45 55.0318 139.811 54.818 140.152 54.9316C140.493 55.0452 140.68 55.4462 140.579 55.8204C140.058 57.7248 139.637 59.676 139.31 61.6206C138.782 64.7813 138.662 67.2137 138.528 70.0269C138.388 72.8201 138.354 75.6735 138.421 78.5068C138.428 78.901 138.154 79.2285 137.8 79.2418C137.8 79.2418 137.786 79.2418 137.78 79.2418V79.2485Z" fill="#B93B1E"/>
<path d="M154.439 93.395C154.091 93.395 153.81 93.0877 153.797 92.7001C153.63 86.118 153.944 79.4691 154.719 72.9472C155.227 68.6973 155.942 64.4206 156.844 60.2442C156.924 59.8633 157.272 59.6227 157.619 59.7163C157.96 59.8098 158.174 60.1974 158.094 60.5783C157.198 64.7079 156.497 68.9378 155.996 73.1343C155.227 79.5827 154.92 86.1514 155.08 92.66C155.087 93.0542 154.813 93.3817 154.459 93.395C154.459 93.395 154.445 93.395 154.439 93.395Z" fill="#B93B1E"/>
<path d="M158.374 51.4101C158.274 51.4101 158.174 51.3833 158.08 51.3299C156.29 50.2808 154.258 49.6459 152.22 49.4922C149.4 49.2784 147.088 50.0001 145.645 50.6483C145.317 50.7953 144.943 50.6149 144.809 50.254C144.676 49.8865 144.836 49.4722 145.164 49.3252C147.409 48.3228 149.875 47.8885 152.3 48.0689C154.519 48.236 156.724 48.9309 158.675 50.0669C158.989 50.2473 159.11 50.6817 158.942 51.0292C158.829 51.2697 158.602 51.4101 158.374 51.4101Z" fill="#B93B1E"/>
<path d="M139.864 95.0456C139.584 95.0456 139.323 94.8317 139.243 94.5176C138.869 92.9473 138.548 91.3436 138.294 89.7465C137.9 87.274 137.653 84.7414 137.552 82.2356C137.539 81.8413 137.813 81.5072 138.167 81.4938C138.501 81.4738 138.822 81.7812 138.835 82.1754C138.929 84.6212 139.176 87.0869 139.557 89.4992C139.804 91.0562 140.118 92.6199 140.486 94.1501C140.579 94.531 140.372 94.9253 140.032 95.0255C139.978 95.0389 139.918 95.0522 139.864 95.0522V95.0456Z" fill="#B93B1E"/>
<path d="M137.105 118.2C142.766 118.2 147.355 110.831 147.355 101.741C147.355 92.6514 142.766 85.2827 137.105 85.2827C131.443 85.2827 126.854 92.6514 126.854 101.741C126.854 110.831 131.443 118.2 137.105 118.2Z" fill="white"/>
<path d="M137.105 111.43C140.437 111.43 143.139 107.092 143.139 101.741C143.139 96.3898 140.437 92.0518 137.105 92.0518C133.772 92.0518 131.071 96.3898 131.071 101.741C131.071 107.092 133.772 111.43 137.105 111.43Z" fill="#090B72"/>
<path d="M171.285 118.2C176.946 118.2 181.535 110.831 181.535 101.741C181.535 92.6514 176.946 85.2827 171.285 85.2827C165.623 85.2827 161.034 92.6514 161.034 101.741C161.034 110.831 165.623 118.2 171.285 118.2Z" fill="white"/>
<path d="M171.285 111.43C174.617 111.43 177.319 107.092 177.319 101.741C177.319 96.3898 174.617 92.0518 171.285 92.0518C167.952 92.0518 165.251 96.3898 165.251 101.741C165.251 107.092 167.952 111.43 171.285 111.43Z" fill="#090B72"/>
<defs>
<linearGradient id="paint0_linear_5000_9772" x1="0" y1="161.464" x2="322.936" y2="161.464" gradientUnits="userSpaceOnUse">
<stop stop-color="#911717"/>
<stop offset="0.5" stop-color="#CD3333"/>
<stop offset="1" stop-color="#8D1515"/>
</linearGradient>
<linearGradient id="paint1_linear_5000_9772" x1="246.173" y1="171.468" x2="247.441" y2="133.26" gradientUnits="userSpaceOnUse">
<stop stop-color="#7A4735"/>
<stop offset="1" stop-color="#4C261B"/>
</linearGradient>
<linearGradient id="paint2_linear_5000_9772" x1="267.968" y1="124.249" x2="233.145" y2="123.094" gradientUnits="userSpaceOnUse">
<stop stop-color="#9F9F9F"/>
<stop offset="1" stop-color="#686868"/>
</linearGradient>
<linearGradient id="paint3_linear_5000_9772" x1="246.222" y1="123.134" x2="233.913" y2="122.725" gradientUnits="userSpaceOnUse">
<stop stop-color="#C5C5C5"/>
<stop offset="1" stop-color="#9F9F9F"/>
</linearGradient>
<linearGradient id="paint4_linear_5000_9772" x1="252.162" y1="130.899" x2="240.882" y2="130.525" gradientUnits="userSpaceOnUse">
<stop stop-color="#686868"/>
<stop offset="1" stop-color="#494949"/>
</linearGradient>
<linearGradient id="paint5_linear_5000_9772" x1="264.772" y1="133.724" x2="265.303" y2="117.715" gradientUnits="userSpaceOnUse">
<stop stop-color="#9F9F9F"/>
<stop offset="1" stop-color="#C5C5C5"/>
</linearGradient>
<linearGradient id="paint6_linear_5000_9772" x1="266.69" y1="132.33" x2="257.039" y2="132.01" gradientUnits="userSpaceOnUse">
<stop stop-color="#686868"/>
<stop offset="1" stop-color="#494949"/>
</linearGradient>
<linearGradient id="paint7_linear_5000_9772" x1="76.8504" y1="193.395" x2="105.691" y2="193.395" gradientUnits="userSpaceOnUse">
<stop stop-color="#4F4F4F"/>
<stop offset="1" stop-color="#231F20"/>
</linearGradient>
<linearGradient id="paint8_linear_5000_9772" x1="74.1841" y1="-31.3036" x2="103.025" y2="-31.3036" gradientUnits="userSpaceOnUse">
<stop stop-color="#4F4F4F"/>
<stop offset="1" stop-color="#231F20"/>
</linearGradient>
<linearGradient id="paint9_linear_5000_9772" x1="79.7973" y1="-31.3036" x2="108.638" y2="-31.3036" gradientUnits="userSpaceOnUse">
<stop stop-color="#4F4F4F"/>
<stop offset="1" stop-color="#231F20"/>
</linearGradient>
<linearGradient id="paint10_linear_5000_9772" x1="79.6636" y1="193.502" x2="105.03" y2="193.502" gradientUnits="userSpaceOnUse">
<stop stop-color="#4F4F4F"/>
<stop offset="1" stop-color="#231F20"/>
</linearGradient>
<linearGradient id="paint11_linear_5000_9772" x1="76.4495" y1="193.503" x2="101.822" y2="193.503" gradientUnits="userSpaceOnUse">
<stop stop-color="#4F4F4F"/>
<stop offset="1" stop-color="#231F20"/>
</linearGradient>
<linearGradient id="paint12_linear_5000_9772" x1="73.4424" y1="193.503" x2="99.6571" y2="193.503" gradientUnits="userSpaceOnUse">
<stop stop-color="#4F4F4F"/>
<stop offset="1" stop-color="#231F20"/>
</linearGradient>
<linearGradient id="paint13_linear_5000_9772" x1="82.664" y1="193.964" x2="104.154" y2="193.964" gradientUnits="userSpaceOnUse">
<stop stop-color="#4F4F4F"/>
<stop offset="1" stop-color="#231F20"/>
</linearGradient>
<linearGradient id="paint14_linear_5000_9772" x1="103.827" y1="87.5947" x2="193.41" y2="87.5947" gradientUnits="userSpaceOnUse">
<stop stop-color="#F3A62C"/>
<stop offset="1" stop-color="#F86F2B"/>
</linearGradient>
<linearGradient id="paint15_linear_5000_9772" x1="218.569" y1="118.46" x2="198.408" y2="61.8947" gradientUnits="userSpaceOnUse">
<stop stop-color="#F86F2B"/>
<stop offset="1" stop-color="#B93B1E"/>
</linearGradient>
<linearGradient id="paint16_linear_5000_9772" x1="148.471" y1="90.5885" x2="148.471" y2="55.7804" gradientUnits="userSpaceOnUse">
<stop stop-color="#F3A62C"/>
<stop offset="1" stop-color="#F86F2B"/>
</linearGradient>
</defs>
</svg>
