<svg width="323" height="323" viewBox="0 0 323 323" fill="none" xmlns="http://www.w3.org/2000/svg">
<g opacity="0.2" style="mix-blend-mode:multiply">
<path d="M294.195 20.7151H28.7339C24.3053 20.7151 20.7151 24.3052 20.7151 28.7338V294.195C20.7151 298.624 24.3053 302.214 28.7339 302.214H294.195C298.624 302.214 302.214 298.624 302.214 294.195V28.7338C302.214 24.3052 298.624 20.7151 294.195 20.7151Z" fill="#BE46F6"/>
</g>
<g opacity="0.2" style="mix-blend-mode:multiply">
<path d="M109.048 182.66C92.4897 182.66 79.065 196.085 79.065 212.644C79.065 216.459 79.7867 220.101 81.083 223.456C72.8772 218.17 63.1143 215.089 52.6298 215.089C23.5618 215.089 0 238.651 0 267.719C0 296.787 23.5618 320.349 52.6298 320.349C81.6978 320.349 105.26 296.787 105.26 267.719C105.26 257.696 102.453 248.327 97.595 240.355C101.123 241.819 104.992 242.627 109.055 242.627C125.614 242.627 139.039 229.202 139.039 212.644C139.039 196.085 125.614 182.66 109.055 182.66H109.048Z" fill="#BE46F6"/>
</g>
<g opacity="0.2" style="mix-blend-mode:multiply">
<path d="M229.196 183.85C279.358 183.85 320.022 143.186 320.022 93.0243C320.022 42.8626 279.358 2.19849 229.196 2.19849C179.035 2.19849 138.371 42.8626 138.371 93.0243C138.371 143.186 179.035 183.85 229.196 183.85Z" fill="#BE46F6"/>
</g>
<path d="M265.949 322.929H56.9867C25.5665 322.929 0 297.362 0 265.942V56.9867C0 25.5665 25.5665 0 56.9867 0H265.942C297.362 0 322.929 25.5665 322.929 56.9867V265.942C322.929 297.362 297.362 322.929 265.942 322.929H265.949ZM56.9867 20.7151C36.9865 20.7151 20.7151 36.9865 20.7151 56.9867V265.942C20.7151 285.942 36.9865 302.214 56.9867 302.214H265.942C285.942 302.214 302.214 285.942 302.214 265.942V56.9867C302.214 36.9865 285.942 20.7151 265.942 20.7151H56.9867Z" fill="url(#paint0_linear_5000_9773)"/>
<path d="M177.225 131.798C191.471 137.752 203.82 139.897 212.293 140.739C223.199 141.821 233.777 142.744 242.791 137.077C247.549 134.09 253.022 130.535 254.298 124.768C254.759 122.683 254.813 119.763 256.256 119.342C257.272 119.048 258.669 120.084 259.384 121.18C260.606 123.057 259.524 124.635 260.513 125.65C261.649 126.813 263.747 125.443 266.828 125.416C270.697 125.383 273.617 127.481 275.615 128.925C277.125 130.014 282.043 133.555 282.591 138.18C283.159 142.964 278.695 146.646 270.503 153.495C265.912 157.338 260.352 161.895 251.625 164.869C249.387 165.63 246.126 166.566 241.188 167.234C226.794 169.179 212.253 166.933 202.818 164.869C194.285 153.843 185.758 142.824 177.225 131.798Z" fill="#BE46F6"/>
<mask id="mask0_5000_9773" style="mask-type:luminance" maskUnits="userSpaceOnUse" x="177" y="119" width="106" height="49">
<path d="M177.225 131.798C191.471 137.752 203.82 139.897 212.293 140.739C223.199 141.821 233.777 142.744 242.791 137.077C247.549 134.09 253.022 130.535 254.298 124.768C254.759 122.683 254.813 119.763 256.256 119.342C257.272 119.048 258.669 120.084 259.384 121.18C260.606 123.057 259.524 124.635 260.513 125.65C261.649 126.813 263.747 125.443 266.828 125.416C270.697 125.383 273.617 127.481 275.615 128.925C277.125 130.014 282.043 133.555 282.591 138.18C283.159 142.964 278.695 146.646 270.503 153.495C265.912 157.338 260.352 161.895 251.625 164.869C249.387 165.63 246.126 166.566 241.188 167.234C226.794 169.179 212.253 166.933 202.818 164.869C194.285 153.843 185.758 142.824 177.225 131.798Z" fill="white"/>
</mask>
<g mask="url(#mask0_5000_9773)">
<path d="M215.795 146.786C229.053 158.099 236.37 170.609 240.185 178.52C217.713 178.36 195.24 178.2 172.768 178.039L166.346 124.521C175.654 125.891 196.423 130.261 215.795 146.786Z" fill="#7C1FB6"/>
</g>
<path d="M40.2175 157.758C41.0194 152.834 43.2245 150.441 44.3939 149.412C48.5303 145.757 55.3462 145.356 55.3796 145.456C55.3796 145.47 55.3061 145.503 55.246 145.516C54.4307 145.73 53.4551 144.013 53.101 143.492C52.2723 142.282 51.6041 140.986 51.3502 139.522C51.0762 137.932 51.2165 135.58 52.6599 134.544C55.2994 132.66 59.1551 136.449 60.9794 138.026C66.4455 142.763 69.8334 149.706 77.5916 150.989C81.9952 151.718 85.6304 151.17 89.0317 150.141C101.868 146.265 108.063 134.23 109.627 130.942C117.913 141.073 126.199 151.196 134.485 161.327C129.266 165.396 120.211 171.658 108.611 175.714C105.53 176.79 99.6766 178.794 91.6779 179.636C89.0317 179.91 86.1583 180.057 83.0911 180.004C74.9922 179.85 46.9265 179.309 41.1998 164.828C40.0838 162.008 40.0972 159.362 40.2242 157.758H40.2175Z" fill="#BE46F6"/>
<mask id="mask1_5000_9773" style="mask-type:luminance" maskUnits="userSpaceOnUse" x="40" y="130" width="95" height="51">
<path d="M40.2175 157.758C41.0194 152.834 43.2245 150.441 44.3939 149.412C48.5303 145.757 55.3462 145.356 55.3796 145.456C55.3796 145.47 55.3061 145.503 55.246 145.516C54.4307 145.73 53.4551 144.013 53.101 143.492C52.2723 142.282 51.6041 140.986 51.3502 139.522C51.0762 137.932 51.2165 135.58 52.6599 134.544C55.2994 132.66 59.1551 136.449 60.9794 138.026C66.4455 142.763 69.8334 149.706 77.5916 150.989C81.9952 151.718 85.6304 151.17 89.0317 150.141C101.868 146.265 108.063 134.23 109.627 130.942C117.913 141.073 126.199 151.196 134.485 161.327C129.266 165.396 120.211 171.658 108.611 175.714C105.53 176.79 99.6766 178.794 91.6779 179.636C89.0317 179.91 86.1583 180.057 83.0911 180.004C74.9922 179.85 46.9265 179.309 41.1998 164.828C40.0838 162.008 40.0972 159.362 40.2242 157.758H40.2175Z" fill="white"/>
</mask>
<g mask="url(#mask1_5000_9773)">
<path d="M88.6441 140.578C90.7758 144.755 96.5626 154.685 108.551 161.34C125.21 170.588 141.635 166.733 145.37 165.757C145.444 156.562 145.51 147.367 145.584 138.179L105.557 121.099C99.9171 127.595 94.284 134.083 88.6441 140.578Z" fill="#7C1FB6"/>
</g>
<path d="M215.875 69.5521C204.435 57.9249 187.923 51.0488 172.119 48.8971C140.131 44.5336 104.481 58.4394 89.8202 88.7838C83.3784 102.115 84.5879 118.38 92.1991 131.15C101.568 146.866 119.256 152.88 134.478 161.327C149.988 169.934 166.473 181.521 176.075 196.803C179.323 201.975 181.448 208.063 180.866 214.137C179.463 228.885 162.771 234.044 150.115 232.827C143.686 232.213 137.231 230.475 131.905 226.82C126.58 223.165 122.49 217.398 121.822 210.976C121.447 207.415 122.116 203.813 121.935 200.238C120.853 178.828 83.9932 182.222 72.4261 191.591C67.675 195.44 64.7014 201.193 63.4518 207.181C60.6853 220.405 64.7148 233.362 72.5598 244C82.6167 257.639 99.3558 265.257 115.373 269.46C148.391 278.12 191.191 277.479 218.528 254.104C239.597 236.082 244.689 207.141 233.256 182.142C226.867 168.176 215.247 158.747 203.199 149.793C188.859 139.135 174.091 129.225 158.394 120.665C152.607 117.504 146.125 113.782 144.575 107.374C143.125 101.36 147.315 94.6909 153.269 93.0137C159.223 91.3297 166.045 94.5305 168.939 99.9967C171.618 105.062 171.217 111.477 174.512 116.168C177.565 120.511 183.105 122.356 188.371 123.031C196.236 124.04 204.348 123.024 211.719 120.104C217.151 117.952 222.323 114.644 225.511 109.753C230.409 102.249 229.801 92.145 226.012 84.026C223.473 78.5866 220.005 73.7686 215.875 69.5721V69.5521Z" fill="#BE46F6"/>
<mask id="mask2_5000_9773" style="mask-type:luminance" maskUnits="userSpaceOnUse" x="62" y="48" width="178" height="227">
<path d="M215.875 69.5521C204.435 57.9249 187.923 51.0488 172.119 48.8971C140.131 44.5336 104.481 58.4394 89.8202 88.7838C83.3784 102.115 84.5879 118.38 92.1991 131.15C101.568 146.866 119.256 152.88 134.478 161.327C149.988 169.934 166.473 181.521 176.075 196.803C179.323 201.975 181.448 208.063 180.866 214.137C179.463 228.885 162.771 234.044 150.115 232.827C143.686 232.213 137.231 230.475 131.905 226.82C126.58 223.165 122.49 217.398 121.822 210.976C121.447 207.415 122.116 203.813 121.935 200.238C120.853 178.828 83.9932 182.222 72.4261 191.591C67.675 195.44 64.7014 201.193 63.4518 207.181C60.6853 220.405 64.7148 233.362 72.5598 244C82.6167 257.639 99.3558 265.257 115.373 269.46C148.391 278.12 191.191 277.479 218.528 254.104C239.597 236.082 244.689 207.141 233.256 182.142C226.867 168.176 215.247 158.747 203.199 149.793C188.859 139.135 174.091 129.225 158.394 120.665C152.607 117.504 146.125 113.782 144.575 107.374C143.125 101.36 147.315 94.6909 153.269 93.0137C159.223 91.3297 166.045 94.5305 168.939 99.9967C171.618 105.062 171.217 111.477 174.512 116.168C177.565 120.511 183.105 122.356 188.371 123.031C196.236 124.04 204.348 123.024 211.719 120.104C217.151 117.952 222.323 114.644 225.511 109.753C230.409 102.249 229.801 92.145 226.012 84.026C223.473 78.5866 220.005 73.7686 215.875 69.5721V69.5521Z" fill="white"/>
</mask>
<g mask="url(#mask2_5000_9773)">
<g opacity="0.5" style="mix-blend-mode:multiply">
<path d="M167.315 207.04C170.248 190.201 182.791 176.663 199.102 172.687C216.563 168.423 235.127 175.894 245.083 191.31V281.535H47.2272V182.323H150.896L167.308 207.047L167.315 207.04Z" fill="#7C1FB6"/>
</g>
</g>
<path d="M244.447 174.558L273.948 159.984C278.411 157.779 280.242 152.373 278.037 147.91L256.843 105.007C254.638 100.544 249.232 98.7129 244.768 100.918L215.268 115.491C210.804 117.697 208.973 123.103 211.178 127.566L232.373 170.468C234.578 174.932 239.984 176.763 244.447 174.558Z" fill="url(#paint1_linear_5000_9773)"/>
<mask id="mask3_5000_9773" style="mask-type:luminance" maskUnits="userSpaceOnUse" x="210" y="99" width="69" height="77">
<path d="M244.447 174.558L273.948 159.984C278.411 157.779 280.242 152.373 278.037 147.91L256.843 105.007C254.638 100.544 249.232 98.7129 244.768 100.918L215.268 115.491C210.804 117.697 208.973 123.103 211.178 127.566L232.373 170.468C234.578 174.932 239.984 176.763 244.447 174.558Z" fill="white"/>
</mask>
<g mask="url(#mask3_5000_9773)">
<path d="M244.843 98.9542C246.193 99.99 247.536 101.026 248.886 102.068C250.904 103.625 252.527 105.63 253.623 107.935C260.005 121.36 266.387 134.778 272.768 148.203C272.935 148.55 273.764 150.388 273.002 152.566C272.521 153.943 271.512 155.139 270.095 155.827C260.279 160.598 250.463 165.363 240.653 170.134C238.047 171.404 234.973 171.263 232.494 169.767C230.589 168.617 228.685 167.468 226.781 166.319C231.852 170.929 236.918 175.54 241.989 180.151L277.319 160.411L281.134 146.906L265.271 110.528L253.684 97.5911C250.737 98.0455 247.796 98.4999 244.85 98.9542H244.843Z" fill="url(#paint2_linear_5000_9773)"/>
</g>
<path d="M276.43 158.727C276.644 158.467 276.844 158.193 277.045 157.899C277.753 156.863 278.314 155.72 278.715 154.498C278.849 154.083 278.629 153.642 278.214 153.509C277.8 153.375 277.359 153.602 277.225 154.01C276.871 155.086 276.377 156.095 275.748 157.01C273.804 159.85 271.078 161.086 269.761 161.681C267.502 162.71 264.248 164.26 260.132 166.225C256.129 168.136 251.144 170.515 245.524 173.148C245.13 173.335 244.963 173.803 245.15 174.19C245.337 174.585 245.805 174.752 246.193 174.565C251.812 171.932 256.797 169.546 260.807 167.635C264.916 165.677 268.164 164.127 270.363 163.124C271.719 162.51 274.318 161.327 276.423 158.714L276.43 158.727Z" fill="#9F1561"/>
<path d="M267.335 125.523C267.523 125.289 267.569 124.962 267.429 124.681L257.873 105.409C257.078 104.08 255.327 101.754 252.167 100.525C247.903 98.8673 244.081 100.404 243.012 100.912C242.618 101.099 242.451 101.567 242.638 101.961C242.825 102.355 243.293 102.523 243.687 102.335C244.616 101.894 247.923 100.565 251.599 101.995C254.325 103.05 255.842 105.062 256.497 106.164L266.019 125.383C266.213 125.77 266.681 125.931 267.075 125.737C267.182 125.683 267.269 125.61 267.335 125.53V125.523Z" fill="#9F1561"/>
<path d="M241.635 103.265C241.822 103.031 241.869 102.703 241.729 102.423C241.535 102.035 241.067 101.875 240.68 102.068L224.141 110.241C223.747 110.435 223.593 110.902 223.787 111.297C223.981 111.684 224.448 111.845 224.836 111.651L241.375 103.478C241.482 103.425 241.569 103.351 241.635 103.265Z" fill="#9F1561"/>
<path d="M238.869 174.986C238.936 174.899 238.989 174.798 239.016 174.685C239.123 174.264 238.862 173.836 238.441 173.736C237.352 173.462 235.254 172.72 233.51 170.809C232.073 169.232 231.458 167.528 231.191 166.372C231.091 165.951 230.67 165.684 230.249 165.784C229.821 165.884 229.56 166.305 229.661 166.726C229.968 168.063 230.683 170.041 232.347 171.872C234.271 173.977 236.517 174.879 238.06 175.26C238.368 175.333 238.675 175.219 238.862 174.992L238.869 174.986Z" fill="#9F1561"/>
<path d="M253.871 128.216C256.296 123.939 264.008 124.026 265.591 124.04C266.955 124.053 274.773 124.294 279.544 130.622C280.379 131.731 282.845 135.005 282.645 139.449C282.351 145.797 276.758 151.584 271.412 152.246C260.934 153.549 249.848 135.319 253.877 128.209L253.871 128.216Z" fill="#BE46F6"/>
<path d="M153.289 83.6919C158.193 83.6919 162.169 77.3075 162.169 69.4319C162.169 61.5563 158.193 55.1719 153.289 55.1719C148.384 55.1719 144.408 61.5563 144.408 69.4319C144.408 77.3075 148.384 83.6919 153.289 83.6919Z" fill="white"/>
<path d="M153.289 77.8248C156.175 77.8248 158.514 74.0671 158.514 69.4318C158.514 64.7965 156.175 61.0388 153.289 61.0388C150.403 61.0388 148.063 64.7965 148.063 69.4318C148.063 74.0671 150.403 77.8248 153.289 77.8248Z" fill="#090B72"/>
<path d="M182.898 83.6919C187.803 83.6919 191.779 77.3075 191.779 69.4319C191.779 61.5563 187.803 55.1719 182.898 55.1719C177.993 55.1719 174.017 61.5563 174.017 69.4319C174.017 77.3075 177.993 83.6919 182.898 83.6919Z" fill="white"/>
<path d="M182.898 77.8248C185.784 77.8248 188.123 74.0671 188.123 69.4318C188.123 64.7965 185.784 61.0388 182.898 61.0388C180.012 61.0388 177.672 64.7965 177.672 69.4318C177.672 74.0671 180.012 77.8248 182.898 77.8248Z" fill="#090B72"/>
<path d="M82.63 180.619C79.7366 180.619 76.8565 180.518 74.0032 180.318C62.3492 179.496 53.983 177.257 47.6682 173.275C45.8974 172.159 43.6388 170.515 41.8747 167.668C40.0304 164.695 39.2218 161.614 39.4691 158.507C40.0304 151.33 45.9576 147.474 46.6325 147.06C48.8777 145.677 51.1363 145.109 52.9406 144.902C50.5149 141.881 49.6796 138.547 50.8223 136.135C51.0896 135.58 52.0986 133.729 54.0097 133.348C55.9543 132.967 57.6182 134.337 58.5203 135.072C61.26 137.317 63.1311 139.315 64.9353 141.253C66.1181 142.516 67.3342 143.819 68.7776 145.162C72.3527 148.497 74.2705 149.259 74.8986 149.513C76.6895 150.228 78.6207 150.595 80.6387 150.608C81.0263 150.608 81.3337 150.929 81.3337 151.31C81.3337 151.698 81.0196 152.005 80.632 152.005C78.4402 151.992 76.3353 151.591 74.3841 150.816C73.1879 150.341 71.2033 149.339 67.8287 146.191C66.3519 144.815 65.1157 143.492 63.9196 142.209C62.1421 140.311 60.3045 138.34 57.6382 136.155C56.6426 135.339 55.4732 134.484 54.2904 134.718C52.9873 134.979 52.2322 136.442 52.0919 136.729C51.0562 138.901 52.1654 142.149 54.9119 145.009C55.1056 145.209 55.1591 145.503 55.0522 145.764C54.9453 146.024 54.698 146.191 54.424 146.198C52.6532 146.238 49.9937 146.626 47.3742 148.25C46.7594 148.631 41.3802 152.132 40.8723 158.614C40.5449 162.844 42.4494 165.918 43.0775 166.927C44.6879 169.526 46.7862 171.05 48.43 172.085C54.5443 175.941 62.7034 178.106 74.1168 178.915C80.3447 179.356 86.6995 179.309 93.0076 178.781C93.3952 178.741 93.7293 179.035 93.7627 179.423C93.7962 179.81 93.5088 180.144 93.1212 180.178C89.6331 180.472 86.1316 180.619 82.6434 180.619H82.63Z" fill="#7C1FB6"/>
<path d="M269.628 152.974C269.547 152.974 269.467 152.974 269.387 152.974C266.179 152.894 263.928 151.17 262.117 149.78C258.06 146.673 255.882 142.944 254.947 140.999C253.329 137.645 250.63 132.032 253.276 127.842C254.619 125.717 256.744 124.888 258.615 124.153C263.019 122.436 266.975 123.258 269.1 123.699C270.764 124.046 273.543 124.621 276.477 126.713C277.74 127.615 280.7 129.72 282.217 133.729C283.988 138.407 283.153 143.873 280.099 147.668C278.989 149.045 276.958 150.943 273.617 152.152C272.648 152.5 271.345 152.974 269.628 152.974ZM264.275 124.521C262.711 124.521 260.954 124.748 259.13 125.463C257.372 126.151 255.561 126.86 254.465 128.59C252.234 132.125 254.726 137.297 256.209 140.391C257.092 142.222 259.143 145.737 262.972 148.671C264.703 150 266.674 151.504 269.427 151.577C270.977 151.611 272.187 151.19 273.142 150.842C275.581 149.96 277.559 148.597 279.016 146.793C281.769 143.385 282.511 138.453 280.914 134.23C279.551 130.622 276.831 128.684 275.675 127.862C272.982 125.944 270.376 125.403 268.826 125.075C267.743 124.848 266.153 124.521 264.282 124.521H264.275Z" fill="#7C1FB6"/>
<defs>
<linearGradient id="paint0_linear_5000_9773" x1="0" y1="161.464" x2="322.936" y2="161.464" gradientUnits="userSpaceOnUse">
<stop stop-color="#BF46F7"/>
<stop offset="0.5" stop-color="#D891F9"/>
<stop offset="0.99" stop-color="#BF46F7"/>
</linearGradient>
<linearGradient id="paint1_linear_5000_9773" x1="256.984" y1="163.949" x2="230.996" y2="111.344" gradientUnits="userSpaceOnUse">
<stop stop-color="#FFACFF"/>
<stop offset="1" stop-color="#E942A9"/>
</linearGradient>
<linearGradient id="paint2_linear_5000_9773" x1="252.708" y1="173.799" x2="257.92" y2="100.581" gradientUnits="userSpaceOnUse">
<stop stop-color="#FDA6F9"/>
<stop offset="0.29" stop-color="#E942A9"/>
<stop offset="1" stop-color="#C81F74"/>
</linearGradient>
</defs>
</svg>
